<?xml version="1.0" encoding="UTF-8"?>
<svg version="1.1" xmlns="http://www.w3.org/2000/svg" width="358" height="341">
<path d="M0 0 C118.14 0 236.28 0 358 0 C358 112.53 358 225.06 358 341 C239.86 341 121.72 341 0 341 C0 228.47 0 115.94 0 0 Z " fill="#0D0D0F" transform="translate(0,0)"/>
<path d="M0 0 C9.68850474 4.90244159 19.65243943 11.92261929 27.2265625 19.75390625 C30.42955514 18.33747173 32.58740452 16.61262843 35.1015625 14.19140625 C47.63599734 2.85269052 64.04183758 -6.92081638 81.29296875 -6.5546875 C87.31662837 -5.92104022 91.3822676 -3.43806342 95.4765625 0.94140625 C106.13285082 14.41420674 104.57778556 33.52207649 102.92773438 49.68017578 C102.27982183 54.10277254 101.37039574 58.43048896 100.2265625 62.75390625 C100.80921875 62.91246094 101.391875 63.07101563 101.9921875 63.234375 C119.72014774 68.27959639 138.98357205 76.39421829 149.10546875 92.61328125 C152.22459625 98.56896722 153.37574762 103.73486424 151.50390625 110.28125 C146.02737115 125.02576758 132.83315521 132.52261998 119.22265625 138.95703125 C104.35539411 145.75390625 104.35539411 145.75390625 100.2265625 145.75390625 C100.43152344 146.45515625 100.63648438 147.15640625 100.84765625 147.87890625 C101.11707031 148.82765625 101.38648438 149.77640625 101.6640625 150.75390625 C101.93089844 151.68203125 102.19773438 152.61015625 102.47265625 153.56640625 C106.59920304 171.01336054 105.94791844 192.0688215 96.4765625 207.62890625 C90.61150127 213.16813075 83.35344511 215.2066918 75.4375 215.08203125 C57.548725 213.25398125 42.08920964 200.33909871 29.2265625 188.75390625 C26.02356986 190.17034077 23.86572048 191.89518407 21.3515625 194.31640625 C12.20740059 202.57468055 1.82146308 208.60573061 -9.7734375 212.75390625 C-10.74539062 213.11742187 -11.71734375 213.4809375 -12.71875 213.85546875 C-18.6214127 215.59154601 -25.38261782 216.0159845 -31.21875 213.84375 C-39.26360134 209.08719341 -42.9699837 202.42537364 -45.7734375 193.75390625 C-47.27759026 187.46901266 -46.95771955 181.11765213 -46.9609375 174.69140625 C-46.97318359 173.43134766 -46.98542969 172.17128906 -46.99804688 170.87304688 C-47.02690301 152.26083728 -47.02690301 152.26083728 -43.7734375 145.75390625 C-44.47726563 145.63144531 -45.18109375 145.50898438 -45.90625 145.3828125 C-62.30470063 141.78587714 -81.94806898 131.7619843 -91.58984375 117.75 C-95.17345026 111.70635997 -96.86243194 105.79524527 -95.7734375 98.75390625 C-91.91247388 86.59646723 -80.69560157 78.52937945 -69.90966797 72.75634766 C-65.6039306 70.58846284 -61.20849276 68.64028309 -56.7734375 66.75390625 C-55.57976562 66.24472656 -54.38609375 65.73554688 -53.15625 65.2109375 C-50.36895646 64.04027421 -47.57634989 62.88655427 -44.7734375 61.75390625 C-44.99 60.80515625 -45.2065625 59.85640625 -45.4296875 58.87890625 C-48.87666697 42.55734608 -51.00017705 23.29731984 -43.7734375 7.75390625 C-43.23009766 6.57828125 -43.23009766 6.57828125 -42.67578125 5.37890625 C-33.34497512 -11.82773285 -14.54507665 -6.53504148 0 0 Z " fill="#7BE0F7" transform="translate(146.7734375,67.24609375)"/>
<path d="M0 0 C118.14 0 236.28 0 358 0 C358 112.53 358 225.06 358 341 C239.86 341 121.72 341 0 341 C0 228.47 0 115.94 0 0 Z M25 22 C25 121 25 220 25 322 C124 322 223 322 325 322 C325 223 325 124 325 22 C226 22 127 22 25 22 Z " fill="#3F3747" transform="translate(0,0)"/>
<path d="M0 0 C5.25139997 5.16669997 7.22767844 9.42499774 7.65625 16.625 C7.86422231 19.26194296 7.86422231 19.26194296 10 22 C10.26450634 24.28893757 10.26450634 24.28893757 10.28520203 27.02790833 C10.29781067 28.06671646 10.31041931 29.1055246 10.32341003 30.17581177 C10.32714127 31.31509125 10.3308725 32.45437073 10.3347168 33.62817383 C10.34636871 34.8284169 10.35802063 36.02865997 10.37002563 37.26527405 C10.39987832 40.55881443 10.42087693 43.85218198 10.43764853 47.14579988 C10.45700627 50.59437704 10.48673461 54.04286605 10.51509094 57.49137878 C10.5611728 63.28596832 10.59955865 69.08056892 10.63305664 74.87524414 C10.67180366 81.56732125 10.72107168 88.25925431 10.77638692 94.95121366 C10.82952073 101.39310423 10.87665897 107.83502359 10.92057228 114.27698326 C10.93925644 117.01567801 10.95975221 119.75435026 10.98166466 122.49302101 C11.01084918 126.3232168 11.03314801 130.15339082 11.0534668 133.98364258 C11.06327072 135.11684937 11.07307465 136.25005615 11.08317566 137.41760254 C11.10288572 142.39250314 11.07910919 147.11355726 10 152 C10.66 152 11.32 152 12 152 C12.33 151.34 12.66 150.68 13 150 C12.56179109 154.55737263 12.14958831 157.57653445 9 161 C9.99 161.66 10.98 162.32 12 163 C12 166 12 166 10.375 168.4375 C9.694375 169.7059375 9.694375 169.7059375 9 171 C9.71563266 173.0162233 9.71563266 173.0162233 11 175 C12.5198442 180.02717696 11.43642565 183.16120888 9.7109375 187.90234375 C8.40456725 191.75685376 8.76578247 194.27435877 10.00335693 198.10855103 C11.21850578 202.30963631 11.28153336 206.28867694 11.25878906 210.63818359 C11.26404602 211.89087288 11.26404602 211.89087288 11.26940918 213.16886902 C11.27816564 215.91214468 11.27239784 218.65515949 11.265625 221.3984375 C11.26697365 223.31743417 11.26891585 225.23643052 11.27142334 227.15542603 C11.27436658 231.17168439 11.27010363 235.18785359 11.26074219 239.20410156 C11.2493636 244.33391634 11.25590215 249.46352143 11.26788712 254.59332848 C11.27514048 258.55518145 11.27280159 262.51698536 11.26763153 266.47883987 C11.26630384 268.36934052 11.26791167 270.25984571 11.27259064 272.15034103 C11.27771149 274.80135512 11.26986755 277.45203772 11.25878906 280.10302734 C11.26283752 280.8731868 11.26688599 281.64334625 11.27105713 282.43684387 C11.22958441 287.83662947 10.35121908 292.7769318 9 298 C9.66 298.33 10.32 298.66 11 299 C10.67 299.598125 10.34 300.19625 10 300.8125 C8.79212012 303.05386471 8.79212012 303.05386471 9 306 C9.99 306.33 10.98 306.66 12 307 C10.97127935 308.28133549 9.92627562 309.54960397 8.875 310.8125 C8.00488281 311.87404297 8.00488281 311.87404297 7.1171875 312.95703125 C2.46419391 317.44691252 -1.92821719 318.37210848 -8.25756836 318.26464844 C-8.95967438 318.25693924 -9.6617804 318.24923004 -10.38516235 318.24128723 C-12.70387036 318.21207369 -15.02153283 318.16090168 -17.33984375 318.109375 C-18.98334355 318.083792 -20.62686397 318.05950507 -22.270401 318.03643799 C-26.61369196 317.97167117 -30.95642749 317.88798985 -35.29931641 317.80072021 C-39.59844152 317.71806768 -43.89785011 317.65523469 -48.19726562 317.58984375 C-63.88551806 317.34241058 -79.57107969 316.99818609 -95.25390625 316.515625 C-96.47746323 316.47926941 -97.7010202 316.44291382 -98.96165466 316.40545654 C-100.11456497 316.36736877 -101.26747528 316.32928101 -102.45532227 316.29003906 C-103.4362233 316.25815491 -104.41712433 316.22627075 -105.42774963 316.19342041 C-108.40732499 316.03209054 -111.34788383 315.77670508 -114.31710815 315.49371338 C-122.36289798 314.81028694 -130.40317216 314.83128478 -138.47094727 314.81054688 C-140.2018198 314.80258806 -141.93269041 314.79419886 -143.66355896 314.78541565 C-147.36621593 314.7674774 -151.06886899 314.75242104 -154.77154732 314.73963928 C-160.62482063 314.71929464 -166.47804609 314.691665 -172.33128357 314.66296387 C-185.79891163 314.59801187 -199.2665747 314.54227569 -212.7342453 314.48697662 C-225.10817711 314.43611804 -237.48209118 314.38330144 -249.85597843 314.32245111 C-255.67738533 314.29410119 -261.49878637 314.27050807 -267.32022774 314.25052643 C-270.93135 314.23716086 -274.54244439 314.21974925 -278.15354347 314.20121574 C-279.83095853 314.1934479 -281.50838245 314.18738349 -283.18581009 314.18312263 C-285.47003614 314.17709203 -287.75415344 314.16505213 -290.03834534 314.15148926 C-291.31787866 314.14633553 -292.59741198 314.14118179 -293.91571903 314.13587189 C-297 314 -297 314 -300 313 C-300.04898437 312.32453125 -300.09796875 311.6490625 -300.1484375 310.953125 C-300.22320312 310.06109375 -300.29796875 309.1690625 -300.375 308.25 C-300.44460938 307.36828125 -300.51421875 306.4865625 -300.5859375 305.578125 C-301.00047833 302.99702173 -301.77860999 301.28390001 -303 299 C-303 298.34 -303 297.68 -303 297 C-303.33 297 -303.66 297 -304 297 C-303.67 289.74 -303.34 282.48 -303 275 C-303.33 275 -303.66 275 -304 275 C-304 270.05 -304 265.1 -304 260 C-303.67 260 -303.34 260 -303 260 C-302.97296438 257.41659616 -302.95314389 254.83347692 -302.9375 252.25 C-302.92912109 251.52039063 -302.92074219 250.79078125 -302.91210938 250.0390625 C-302.89598953 246.4926957 -303.14405002 243.4171356 -304 240 C-304.11954527 236.23432404 -304.19088824 232.93323139 -303.4375 229.25 C-302.96216904 226.80544076 -303.22018293 225.33945122 -304 223 C-303.67 223 -303.34 223 -303 223 C-302.94616152 220.54137599 -302.90640962 218.0839245 -302.875 215.625 C-302.85824219 214.92632812 -302.84148437 214.22765625 -302.82421875 213.5078125 C-302.80655733 211.67102514 -302.89696739 209.83398037 -303 208 C-303.66 207.34 -304.32 206.68 -305 206 C-305.14148447 203.56642931 -305.16227333 201.26041373 -305.08203125 198.83203125 C-305.06412033 198.11899338 -305.04620941 197.40595551 -305.02775574 196.67131042 C-304.98651925 195.15889653 -304.93992735 193.6466207 -304.88842773 192.13452148 C-304.81337053 189.83912265 -304.76397911 187.54416654 -304.71679688 185.24804688 C-304.67344314 183.77599465 -304.62856839 182.30398628 -304.58203125 180.83203125 C-304.56936722 180.15259964 -304.55670319 179.47316803 -304.5436554 178.77314758 C-304.34435277 173.80985068 -303.11087463 170.40215421 -301 166 C-299.99220392 162.95458344 -299.99255206 160.73206746 -300.4375 157.5625 C-300.77327036 155.00644815 -300.99371716 152.71098954 -300.9375 150.125 C-300.82112536 147.69414645 -300.82112536 147.69414645 -303 145 C-303.67939174 143.00428677 -304.34561559 141.00405227 -305 139 C-306.16816138 136.44464698 -307.4288503 134.35672454 -309 132 C-309.24444485 129.90685081 -309.24444485 129.90685081 -309.2361908 127.44784546 C-309.23775177 126.51434265 -309.23931274 125.58083984 -309.24092102 124.61904907 C-309.23223495 123.59669159 -309.22354889 122.57433411 -309.21459961 121.52099609 C-309.21316956 120.44261475 -309.2117395 119.3642334 -309.21026611 118.25317383 C-309.20205994 114.67645698 -309.17825108 111.10006739 -309.15234375 107.5234375 C-309.13886462 105.03821914 -309.12556649 102.5529998 -309.11244202 100.06777954 C-309.08192554 94.85060599 -309.04254256 89.63357798 -308.99829102 84.41650391 C-308.94198669 77.7418577 -308.92034139 71.0675837 -308.9054327 64.39270592 C-308.88865357 59.25545217 -308.84959992 54.11853988 -308.80444527 48.98146439 C-308.78646663 46.52162837 -308.77656258 44.06171929 -308.77497673 41.60181808 C-308.77042455 38.15235722 -308.73454619 34.70453311 -308.69116211 31.25537109 C-308.69664566 30.245159 -308.70212921 29.2349469 -308.70777893 28.19412231 C-308.5483321 19.85748233 -305.86254588 14.36349141 -300.5 8.0625 C-291.94183185 1.74958631 -276.93829116 3.61649901 -266.671875 3.48046875 C-265.00649417 3.45289446 -263.34111948 3.42494684 -261.67575073 3.39665222 C-257.27153695 3.32573076 -252.86726718 3.26952236 -248.46277618 3.21898651 C-245.7440909 3.18743141 -243.02546302 3.15252528 -240.30682373 3.11724854 C-170.50713213 2.24643394 -170.50713213 2.24643394 -161 7 C-161 7.66 -161 8.32 -161 9 C-156.71 9 -152.42 9 -148 9 C-148.99 8.505 -148.99 8.505 -150 8 C-150 7.34 -150 6.68 -150 6 C-146.86501708 4.14223235 -144.62528568 3.79859524 -141 4 C-141 4.66 -141 5.32 -141 6 C-139.68 5.34 -138.36 4.68 -137 4 C-136.01 4.66 -135.02 5.32 -134 6 C-131.43599277 5.36311933 -131.43599277 5.36311933 -128.8125 4.125 C-127.91144531 3.73570313 -127.01039063 3.34640625 -126.08203125 2.9453125 C-125.05142578 2.47738281 -125.05142578 2.47738281 -124 2 C-123.67 2.33 -123.34 2.66 -123 3 C-121.38760422 3.01691059 -119.77439882 2.96211123 -118.1640625 2.87890625 C-117.13249023 2.83064697 -116.10091797 2.7823877 -115.03808594 2.73266602 C-113.3486084 2.64843384 -113.3486084 2.64843384 -111.625 2.5625 C-100.90963381 2.07238613 -90.23929692 1.91727974 -79.51416016 2.12524414 C-72.77657518 2.19980494 -66.41634987 1.58488564 -59.76269531 0.5456543 C-53.45274009 -0.36939566 -47.11090598 -0.89562712 -40.75927734 -1.43261719 C-38.50157596 -1.6248658 -36.24499207 -1.82773998 -33.98828125 -2.03125 C-6.89715743 -4.40244091 -6.89715743 -4.40244091 0 0 Z M-298 11 C-298 110 -298 209 -298 311 C-199 311 -100 311 2 311 C2 212 2 113 2 11 C-97 11 -196 11 -298 11 Z " fill="#6F5F94" transform="translate(323,11)"/>
<path d="M0 0 C1.02565063 -0.00143509 1.02565063 -0.00143509 2.07202148 -0.00289917 C3.50732516 -0.00357496 4.94263201 -0.00176294 6.37792969 0.00244141 C8.55671142 0.00779827 10.73528706 0.00247592 12.9140625 -0.00390625 C14.31770878 -0.00324536 15.72135494 -0.00196398 17.125 0 C18.38441406 0.00112793 19.64382812 0.00225586 20.94140625 0.00341797 C30.83310339 0.35688341 30.83310339 0.35688341 34.01171875 3.73828125 C34.78358856 4.91579293 35.52810818 6.11151601 36.25 7.3203125 C36.65645752 7.96798584 37.06291504 8.61565918 37.48168945 9.28295898 C38.87748145 11.54669604 40.22276098 13.8354687 41.5625 16.1328125 C42.10261719 17.04643555 42.64273438 17.96005859 43.19921875 18.90136719 C44.90959485 21.81820423 46.58590177 24.75185458 48.25 27.6953125 C48.79164795 28.63463623 49.3332959 29.57395996 49.89135742 30.54174805 C53.54992379 37.19645627 53.54992379 37.19645627 53.60546875 41.33203125 C52.3175313 44.7906498 50.87337956 48.1040277 49.1875 51.3828125 C48.84315918 52.06230957 48.49881836 52.74180664 48.14404297 53.44189453 C37.3173204 74.3779921 37.3173204 74.3779921 31.5625 80.1328125 C26.41797643 81.15296265 21.36512175 81.29291747 16.14453125 81.30078125 C14.97503181 81.30577385 14.97503181 81.30577385 13.78190613 81.31086731 C12.14570704 81.31589912 10.50949783 81.3182768 8.87329102 81.31811523 C6.37173787 81.32031537 3.87061676 81.33854743 1.36914062 81.35742188 C-0.226561 81.36035388 -1.82226471 81.36233997 -3.41796875 81.36328125 C-4.53524605 81.37405952 -4.53524605 81.37405952 -5.6750946 81.38505554 C-12.4002219 81.35540634 -12.4002219 81.35540634 -15.4375 79.1328125 C-16.8503418 77.43139648 -16.8503418 77.43139648 -18.13671875 75.37890625 C-18.86145386 74.23264771 -18.86145386 74.23264771 -19.60083008 73.06323242 C-20.10380615 72.24056885 -20.60678223 71.41790527 -21.125 70.5703125 C-21.64666748 69.72637939 -22.16833496 68.88244629 -22.70581055 68.01293945 C-26.1696837 62.3487743 -29.54369833 56.63436306 -32.75 50.8203125 C-33.14082764 50.13445068 -33.53165527 49.44858887 -33.93432617 48.74194336 C-35.5407022 45.73570941 -36.44578628 43.53469721 -36.375 40.1015625 C-35.25221268 36.54606932 -33.81770901 33.25673459 -32.125 29.9453125 C-31.7839624 29.26911865 -31.4429248 28.5929248 -31.09155273 27.89624023 C-20.24345226 6.93876476 -20.24345226 6.93876476 -14.4375 1.1328125 C-9.59295076 0.26607804 -4.91497233 0.00440184 0 0 Z " fill="#0E0F12" transform="translate(166.4375,130.8671875)"/>
<path d="M0 0 C0 0.66 0 1.32 0 2 C1.98 2.495 1.98 2.495 4 3 C3.67 3.33 3.34 3.66 3 4 C-43.2 4 -89.4 4 -137 4 C-137 103 -137 202 -137 304 C-91.13 304 -45.26 304 2 304 C5.63 304.33 9.26 304.66 13 305 C13 305.33 13 305.66 13 306 C5.72340012 307.14095138 -1.44896768 307.14098087 -8.80395508 307.12939453 C-10.1894129 307.13075152 -11.57487036 307.13253312 -12.96032715 307.13470459 C-16.70168014 307.1392414 -20.44300539 307.13750543 -24.18435884 307.1343255 C-28.10538445 307.13178499 -32.02640776 307.13414391 -35.94743347 307.13571167 C-42.52509994 307.13752736 -49.10275516 307.1351417 -55.68041992 307.13037109 C-63.28655483 307.12491831 -70.89266297 307.1267009 -78.49879724 307.1321975 C-85.035684 307.13673226 -91.5725627 307.13737773 -98.10945052 307.13475883 C-102.01120708 307.13319952 -105.91295105 307.13299309 -109.8147068 307.13629532 C-113.47795749 307.13917967 -117.14117353 307.13718793 -120.80442047 307.13140106 C-122.79213412 307.12944461 -124.77985069 307.13242179 -126.76756287 307.13552856 C-128.53600052 307.13129883 -128.53600052 307.13129883 -130.34016418 307.12698364 C-131.88010402 307.1264181 -131.88010402 307.1264181 -133.45115376 307.12584114 C-136 307 -136 307 -139 306 C-139.04898438 305.32453125 -139.09796875 304.6490625 -139.1484375 303.953125 C-139.22320312 303.06109375 -139.29796875 302.1690625 -139.375 301.25 C-139.44460937 300.36828125 -139.51421875 299.4865625 -139.5859375 298.578125 C-140.00047833 295.99702173 -140.77860999 294.28390001 -142 292 C-142 291.34 -142 290.68 -142 290 C-142.33 290 -142.66 290 -143 290 C-142.67 282.74 -142.34 275.48 -142 268 C-142.33 268 -142.66 268 -143 268 C-143 263.05 -143 258.1 -143 253 C-142.67 253 -142.34 253 -142 253 C-141.97296438 250.41659616 -141.95314389 247.83347692 -141.9375 245.25 C-141.92912109 244.52039063 -141.92074219 243.79078125 -141.91210938 243.0390625 C-141.89598953 239.4926957 -142.14405002 236.4171356 -143 233 C-143.11954527 229.23432404 -143.19088824 225.93323139 -142.4375 222.25 C-141.96216904 219.80544076 -142.22018293 218.33945122 -143 216 C-142.67 216 -142.34 216 -142 216 C-141.94616152 213.54137599 -141.90640962 211.0839245 -141.875 208.625 C-141.85824219 207.92632812 -141.84148437 207.22765625 -141.82421875 206.5078125 C-141.80655733 204.67102514 -141.89696739 202.83398037 -142 201 C-142.66 200.34 -143.32 199.68 -144 199 C-144.14148447 196.56642931 -144.16227333 194.26041373 -144.08203125 191.83203125 C-144.06412033 191.11899338 -144.04620941 190.40595551 -144.02775574 189.67131042 C-143.98651925 188.15889653 -143.93992735 186.6466207 -143.88842773 185.13452148 C-143.81337053 182.83912265 -143.76397911 180.54416654 -143.71679688 178.24804688 C-143.67344314 176.77599465 -143.62856839 175.30398628 -143.58203125 173.83203125 C-143.56936722 173.15259964 -143.55670319 172.47316803 -143.5436554 171.77314758 C-143.34435277 166.80985068 -142.11087463 163.40215421 -140 159 C-138.99220392 155.95458344 -138.99255206 153.73206746 -139.4375 150.5625 C-139.77327036 148.00644815 -139.99371716 145.71098954 -139.9375 143.125 C-139.82112536 140.69414645 -139.82112536 140.69414645 -142 138 C-142.67939174 136.00428677 -143.34561559 134.00405227 -144 132 C-145.16816138 129.44464698 -146.4288503 127.35672454 -148 125 C-148.24444485 122.90685081 -148.24444485 122.90685081 -148.2361908 120.44784546 C-148.23775177 119.51434265 -148.23931274 118.58083984 -148.24092102 117.61904907 C-148.23223495 116.59669159 -148.22354889 115.57433411 -148.21459961 114.52099609 C-148.21316956 113.44261475 -148.2117395 112.3642334 -148.21026611 111.25317383 C-148.20205994 107.67645698 -148.17825108 104.10006739 -148.15234375 100.5234375 C-148.13886462 98.03821914 -148.12556649 95.5529998 -148.11244202 93.06777954 C-148.08192554 87.85060599 -148.04254256 82.63357798 -147.99829102 77.41650391 C-147.94198669 70.7418577 -147.92034139 64.0675837 -147.9054327 57.39270592 C-147.88865357 52.25545217 -147.84959992 47.11853988 -147.80444527 41.98146439 C-147.78646663 39.52162837 -147.77656258 37.06171929 -147.77497673 34.60181808 C-147.77042455 31.15235722 -147.73454619 27.70453311 -147.69116211 24.25537109 C-147.69664566 23.245159 -147.70212921 22.2349469 -147.70777893 21.19412231 C-147.5483321 12.85748233 -144.86254588 7.36349141 -139.5 1.0625 C-131.02896439 -5.19184014 -116.2482082 -3.36799615 -106.08203125 -3.484375 C-104.4556973 -3.50829446 -102.82936983 -3.53265801 -101.20304871 -3.55743408 C-97.79842009 -3.60707502 -94.39379013 -3.64987593 -90.98901367 -3.68798828 C-87.57538205 -3.72678138 -84.16213157 -3.77510089 -80.7487793 -3.83349609 C-10.08218731 -5.04109366 -10.08218731 -5.04109366 0 0 Z " fill="#BF8C84" transform="translate(162,18)"/>
<path d="M0 0 C1.41071441 3.75185128 2.81638995 7.50554834 4.2175293 11.26098633 C4.69435516 12.53688762 5.17252766 13.81228654 5.65209961 15.0871582 C6.34326813 16.92525019 7.02911262 18.76534134 7.71484375 20.60546875 C8.12855225 21.71043701 8.54226074 22.81540527 8.96850586 23.95385742 C11.06623167 30.14872724 11.01650768 32.84121257 8.375 38.9375 C7.81536218 40.25942587 7.25812867 41.58237182 6.703125 42.90625 C6.41888672 43.57914063 6.13464844 44.25203125 5.84179688 44.9453125 C4.49313908 48.237164 3.30366456 51.5817369 2.125 54.9375 C1.71507812 56.10152344 1.30515625 57.26554687 0.8828125 58.46484375 C0.59148437 59.30144531 0.30015625 60.13804687 0 61 C-13.70820459 59.43583085 -30.87739488 50.40711154 -39.7734375 39.8515625 C-42.36087817 36.53782269 -43.70614015 34.40399704 -44.5625 30.3125 C-43.27956745 22.75745275 -37.27603385 17.89699922 -31.375 13.5 C-23.13370854 7.83810136 -10.13069795 0 0 0 Z " fill="#111115" transform="translate(106,141)"/>
<path d="M0 0 C2.05300707 0.38075057 4.0928182 0.83286873 6.125 1.3125 C12.67245841 2.78165306 19.16122991 3.76784377 25.8203125 4.5703125 C26.86960938 4.71210938 27.91890625 4.85390625 29 5 C29.70640625 5.061875 30.4128125 5.12375 31.140625 5.1875 C34.19530703 6.52231904 35.74748879 9.23397755 37.625 11.875 C41.80922607 17.56557911 46.29692326 22.7412286 51.1640625 27.85546875 C53 30 53 30 53 32 C42.22846523 42.39782846 25.8998148 54.4899805 10.5625 55.625 C6.17043737 54.8544627 3.60636995 53.55976546 1 50 C-3.05051679 41.96282985 -3.5644292 34.36329239 -3.375 25.5 C-3.37371094 24.35402344 -3.37242188 23.20804688 -3.37109375 22.02734375 C-3.17809806 3.17809806 -3.17809806 3.17809806 0 0 Z " fill="#0C0D10" transform="translate(114,216)"/>
<path d="M0 0 C12.46774684 3.27493811 23.77540732 8.09740451 34 16 C34.928125 16.639375 35.85625 17.27875 36.8125 17.9375 C40.95385438 21.84220556 43.87753018 25.71389671 44.1875 31.5 C40.31547389 42.91228748 30.31073266 48.49093831 20.0625 53.6875 C4.99282095 61 4.99282095 61 0 61 C-0.2266333 60.3702124 -0.4532666 59.7404248 -0.68676758 59.09155273 C-1.72651215 56.20608266 -2.76948019 53.3217877 -3.8125 50.4375 C-4.16892578 49.44685547 -4.52535156 48.45621094 -4.89257812 47.43554688 C-5.24384766 46.46552734 -5.59511719 45.49550781 -5.95703125 44.49609375 C-6.30072754 43.54589355 -6.64442383 42.59569336 -6.99853516 41.61669922 C-7.8477371 39.39784343 -8.79113531 37.29629293 -9.82421875 35.16015625 C-12.32986766 28.42570452 -8.66795592 22.27153992 -6.0625 16 C-2.80189337 8.08589348 -2.80189337 8.08589348 0 0 Z " fill="#0A0A0C" transform="translate(244,141)"/>
<path d="M0 0 C5.49315369 3.31662109 7.32190206 6.92745854 9 13 C9.17273438 13.59288818 9.34546875 14.18577637 9.5234375 14.79663086 C10.49293404 19.27906233 10.19061572 23.9327059 10.1875 28.5 C10.18741943 29.57902588 10.18733887 30.65805176 10.18725586 31.76977539 C10.049704 50.950296 10.049704 50.950296 7 54 C5.54835702 53.94045701 4.09966761 53.80602852 2.65625 53.640625 C1.75003906 53.53814453 0.84382813 53.43566406 -0.08984375 53.33007812 C-1.53037109 53.16668945 -1.53037109 53.16668945 -3 53 C-3.92941406 52.91685547 -4.85882813 52.83371094 -5.81640625 52.74804688 C-24.54711117 51.00895116 -24.54711117 51.00895116 -29.36328125 46.23046875 C-31.52036951 43.57674103 -33.22701675 40.69071702 -34.91552734 37.72363281 C-36.78086169 34.75891861 -39.20042263 32.32359368 -41.625 29.8125 C-46 25.21538462 -46 25.21538462 -46 23 C-35.2065525 12.58101905 -15.80297034 -2.77245094 0 0 Z " fill="#0F0F12" transform="translate(229,72)"/>
<path d="M0 0 C2.06689763 8.17245137 2.36636429 16.09745225 2.375 24.5 C2.39949219 25.75425781 2.42398438 27.00851563 2.44921875 28.30078125 C2.47720856 37.21087094 1.40664819 44.2677523 -3.8671875 51.59375 C-8.36093482 54.55666032 -13.86131775 53.57691224 -19 53 C-31.79660084 49.85664892 -43.86052297 40.13947703 -53 31 C-52.79726961 26.91894916 -50.15478151 24.75434603 -47.4375 21.9375 C-44.72465172 19.12307862 -42.38964508 16.64903839 -40.37207031 13.28833008 C-37.67953434 8.93074883 -35.64320781 5.70209673 -30.83276367 3.64672852 C-27.17912572 2.80303674 -23.59849907 2.25135477 -19.875 1.8125 C-18.62589844 1.62365234 -17.37679687 1.43480469 -16.08984375 1.24023438 C-10.68267938 0.45253113 -5.46933188 -0.09302284 0 0 Z " fill="#08090B" transform="translate(237,217)"/>
<path d="M0 0 C12.69426363 3.67550746 24.50610712 11.96153372 34 21 C34.495 22.485 34.495 22.485 35 24 C33.4453125 26.3125 33.4453125 26.3125 31.125 29 C30.30257812 29.96808594 29.48015625 30.93617187 28.6328125 31.93359375 C28.20000977 32.43616699 27.76720703 32.93874023 27.32128906 33.45654297 C25.17679562 35.96162196 23.09019843 38.51192024 21 41.0625 C20.2575 41.96097656 19.515 42.85945313 18.75 43.78515625 C16.97935206 45.87162234 16.97935206 45.87162234 16 48 C13.83862305 48.57836914 13.83862305 48.57836914 11.01171875 49.03515625 C9.99529297 49.20466797 8.97886719 49.37417969 7.93164062 49.54882812 C6.86107422 49.71833984 5.79050781 49.88785156 4.6875 50.0625 C2.58704997 50.40639596 0.48678173 50.75140455 -1.61328125 51.09765625 C-2.54954346 51.24726807 -3.48580566 51.39687988 -4.45043945 51.55102539 C-6.93949493 51.95316372 -6.93949493 51.95316372 -9.10229492 52.55249023 C-12.05653545 53.24914827 -14.98040541 53.05806913 -18 53 C-20.15603794 44.63008053 -20.33366202 36.48371041 -20.3125 27.875 C-20.32861328 26.55628906 -20.34472656 25.23757812 -20.36132812 23.87890625 C-20.36562503 15.32806116 -19.76536472 9.28185504 -15.0625 2 C-10.1768445 -1.19063216 -5.65856604 -0.83654282 0 0 Z " fill="#121216" transform="translate(131,73)"/>
<path d="M0 0 C4.92452431 3.32938649 9.80423108 8.47573462 11.07421875 14.40234375 C11.90213674 21.72219009 10.82742864 28.01084808 7.07421875 34.40234375 C2.74348474 39.4941721 -2.82904528 42.90483908 -9.53125 43.71875 C-16.82996061 44.0308328 -22.15889418 42.78398101 -27.64453125 37.859375 C-32.69553162 32.44935745 -35.01322296 26.77615222 -35.36328125 19.40234375 C-35.12727988 13.23798787 -33.28926892 8.90398937 -29.0546875 4.421875 C-20.57805973 -3.34970245 -10.5607726 -5.32778653 0 0 Z " fill="#7BE1F8" transform="translate(185.92578125,151.59765625)"/>
<path d="M0 0 C5.25139997 5.16669997 7.22767844 9.42499774 7.65625 16.625 C7.86422231 19.26194296 7.86422231 19.26194296 10 22 C10.26450634 24.28893757 10.26450634 24.28893757 10.28520203 27.02790833 C10.29781067 28.06671646 10.31041931 29.1055246 10.32341003 30.17581177 C10.32714127 31.31509125 10.3308725 32.45437073 10.3347168 33.62817383 C10.34636871 34.8284169 10.35802063 36.02865997 10.37002563 37.26527405 C10.39987832 40.55881443 10.42087693 43.85218198 10.43764853 47.14579988 C10.45700627 50.59437704 10.48673461 54.04286605 10.51509094 57.49137878 C10.5611728 63.28596832 10.59955865 69.08056892 10.63305664 74.87524414 C10.67180366 81.56732125 10.72107168 88.25925431 10.77638692 94.95121366 C10.82952073 101.39310423 10.87665897 107.83502359 10.92057228 114.27698326 C10.93925644 117.01567801 10.95975221 119.75435026 10.98166466 122.49302101 C11.01084918 126.3232168 11.03314801 130.15339082 11.0534668 133.98364258 C11.06817268 135.68345276 11.06817268 135.68345276 11.08317566 137.41760254 C11.10288572 142.39250314 11.07910919 147.11355726 10 152 C10.66 152 11.32 152 12 152 C12.33 151.34 12.66 150.68 13 150 C12.75 153.375 12.75 153.375 12 157 C9.9375 158.4375 9.9375 158.4375 8 159 C8.185625 158.38125 8.37125 157.7625 8.5625 157.125 C9.23686176 154.95839822 9.23686176 154.95839822 8 153 C7.89753801 151.36879303 7.85783381 149.73347053 7.84851074 148.09907532 C7.84016708 147.06308701 7.83182343 146.02709869 7.82322693 144.9597168 C7.81904251 143.81841309 7.81485809 142.67710937 7.81054688 141.5012207 C7.79810692 139.70348457 7.79810692 139.70348457 7.78541565 137.86943054 C7.76798115 135.25900836 7.75233157 132.64864516 7.73963928 130.03820229 C7.7194213 125.9068716 7.69176502 121.77561142 7.66296387 117.64433289 C7.6028336 108.8670884 7.55107031 100.08980114 7.5 91.3125 C7.44488781 81.85409212 7.38823999 72.39570578 7.32245111 62.93736523 C7.29881648 59.50601109 7.27723442 56.07466887 7.26036072 52.64327431 C7.24093927 48.81072756 7.21578078 44.97825657 7.18945312 41.14575195 C7.18526871 40.0145694 7.18108429 38.88338684 7.17677307 37.71792603 C7.1343273 32.37593293 6.9373376 27.26291386 6 22 C5.34 22 4.68 22 4 22 C3.67 18.04 3.34 14.08 3 10 C1.12745041 10.00444122 -0.74509918 10.00888245 -2.6743927 10.01345825 C-20.28867881 10.05393482 -37.90295554 10.08407092 -55.51727772 10.10362434 C-64.57379331 10.1139447 -73.63027424 10.1280195 -82.68676758 10.15087891 C-90.5787757 10.17078958 -98.4707587 10.18371091 -106.36279124 10.18817699 C-110.5430329 10.19078831 -114.72320272 10.19694176 -118.9034214 10.21146011 C-122.83579458 10.22500737 -126.76806614 10.22922845 -130.70046043 10.22621536 C-132.14566983 10.22676681 -133.59088252 10.23076127 -135.03607178 10.23841095 C-137.00557514 10.24832694 -138.97513269 10.24478535 -140.94465637 10.24050903 C-142.59973567 10.24327441 -142.59973567 10.24327441 -144.28825092 10.24609566 C-147 10 -147 10 -150 8 C-150 7.34 -150 6.68 -150 6 C-146.86501708 4.14223235 -144.62528568 3.79859524 -141 4 C-141 4.66 -141 5.32 -141 6 C-139.68 5.34 -138.36 4.68 -137 4 C-136.01 4.66 -135.02 5.32 -134 6 C-131.43599277 5.36311933 -131.43599277 5.36311933 -128.8125 4.125 C-127.91144531 3.73570313 -127.01039063 3.34640625 -126.08203125 2.9453125 C-125.39496094 2.63335938 -124.70789063 2.32140625 -124 2 C-123.67 2.33 -123.34 2.66 -123 3 C-121.38760422 3.01691059 -119.77439882 2.96211123 -118.1640625 2.87890625 C-117.13249023 2.83064697 -116.10091797 2.7823877 -115.03808594 2.73266602 C-113.91176758 2.67651123 -112.78544922 2.62035645 -111.625 2.5625 C-100.90963381 2.07238613 -90.23929692 1.91727974 -79.51416016 2.12524414 C-72.77657518 2.19980494 -66.41634987 1.58488564 -59.76269531 0.5456543 C-53.45274009 -0.36939566 -47.11090598 -0.89562712 -40.75927734 -1.43261719 C-38.50157596 -1.6248658 -36.24499207 -1.82773998 -33.98828125 -2.03125 C-6.89715743 -4.40244091 -6.89715743 -4.40244091 0 0 Z " fill="#31769F" transform="translate(323,11)"/>
<path d="M0 0 C0.7438092 -0.00167175 1.48761841 -0.00334351 2.25396729 -0.00506592 C17.39421294 -0.00707716 32.23980174 1.21497121 47.25 3.25 C48.39041748 3.39381104 49.53083496 3.53762207 50.70581055 3.68579102 C56.84256909 4.52220394 61.8423781 5.52609505 67.3125 8.4375 C71.20886281 10.72397075 71.20886281 10.72397075 75.48828125 10.86328125 C76.36033203 10.55970703 76.36033203 10.55970703 77.25 10.25 C78.59882408 10.88474075 79.9346659 11.54848848 81.25 12.25 C81.91 11.92 82.57 11.59 83.25 11.25 C83.58 12.24 83.91 13.23 84.25 14.25 C85.74985609 15.91710346 85.74985609 15.91710346 87.25 17.25 C85.66676312 17.277193 84.08338938 17.29648306 82.5 17.3125 C81.17742187 17.32990234 81.17742187 17.32990234 79.828125 17.34765625 C77.4681162 17.25826198 75.50501476 16.91912821 73.25 16.25 C73.25 15.59 73.25 14.93 73.25 14.25 C45.23754699 11.53103031 17.40061271 11.01448018 -10.71521378 11.4021492 C-13.30282314 11.43736829 -15.89045802 11.46903523 -18.4781189 11.50021362 C-22.62166515 11.55194855 -26.76485915 11.61585416 -30.90806961 11.68967438 C-32.44414704 11.71638694 -33.98027013 11.74061641 -35.5164299 11.76207733 C-51.67009215 11.19691324 -51.67009215 11.19691324 -66.3125 16.375 C-72.09572594 23.19624085 -73.33711628 29.11685076 -73.24829102 37.93286133 C-73.25380981 38.97284271 -73.25932861 40.0128241 -73.26501465 41.08432007 C-73.27430188 43.32956369 -73.27446708 45.57486 -73.26642036 47.82010841 C-73.2537661 51.37136242 -73.26510102 54.92184215 -73.28245544 58.47306824 C-73.30911483 64.72395418 -73.3147522 70.97464929 -73.31335449 77.22558594 C-73.3111224 87.24830027 -73.32512766 97.27077998 -73.36894035 107.29340172 C-73.37880538 110.79621528 -73.37005049 114.29866172 -73.36024475 117.8014679 C-73.36638563 119.93901819 -73.37329624 122.07656647 -73.38110352 124.21411133 C-73.37338425 125.19128616 -73.36566498 126.168461 -73.35771179 127.17524719 C-73.3644693 128.06812439 -73.37122681 128.96100159 -73.37818909 129.88093567 C-73.37760278 130.65683454 -73.37701647 131.4327334 -73.37641239 132.23214436 C-73.84215448 134.7477532 -74.81435228 135.64181176 -76.75 137.25 C-76.74777939 135.99354675 -76.74555878 134.73709351 -76.74327087 133.44256592 C-76.72301492 121.61203205 -76.70801599 109.7815017 -76.69818783 97.95095444 C-76.69296526 91.86850004 -76.68587891 85.78605963 -76.67456055 79.70361328 C-76.66370951 73.83570467 -76.65771844 67.96780953 -76.65512276 62.09989166 C-76.65327252 59.85916176 -76.64965957 57.61843262 -76.64426994 55.37770844 C-76.63703017 52.2436513 -76.63601031 49.10965007 -76.63647461 45.97558594 C-76.63287933 45.04554245 -76.62928406 44.11549896 -76.62557983 43.15727234 C-76.6269545 42.30194412 -76.62832916 41.44661591 -76.62974548 40.56536865 C-76.62882369 39.82424709 -76.6279019 39.08312553 -76.62695217 38.31954575 C-76.67690923 36.22150311 -76.67690923 36.22150311 -77.34345341 34.16388321 C-78.00315832 31.05821666 -76.19418151 28.97172669 -74.75 26.25 C-74.605625 25.425 -74.46125 24.6 -74.3125 23.75 C-73.53834948 20.309331 -71.81764466 18.08562696 -69.75 15.25 C-69.151875 14.404375 -68.55375 13.55875 -67.9375 12.6875 C-61.23149176 5.21509082 -53.671967 3.11344186 -43.9375 2.1875 C-43.20080078 2.10951172 -42.46410156 2.03152344 -41.70507812 1.95117188 C-27.84010484 0.55660681 -13.92910558 0.01688853 0 0 Z " fill="#885F3C" transform="translate(88.75,3.75)"/>
<path d="M0 0 C53.13 0 106.26 0 161 0 C161.99 4.455 161.99 4.455 163 9 C163.99 10.485 163.99 10.485 165 12 C166.32229789 18.3173091 166.16563046 24.69879641 166.18945312 31.12988281 C166.20189308 32.9383519 166.20189308 32.9383519 166.21458435 34.78335571 C166.23645721 38.0722858 166.25419938 41.36120842 166.27039146 44.65017033 C166.28862481 48.09743461 166.31303929 51.54465417 166.33703613 54.99188232 C166.40205188 64.48967351 166.45768834 73.98751513 166.51302338 83.48536682 C166.56388944 92.20438738 166.61674387 100.92338276 166.67754889 109.64234042 C166.70588348 113.74516661 166.72948293 117.8479846 166.74947357 121.95085955 C166.76599319 125.096497 166.7887826 128.24209043 166.81054688 131.38769531 C166.81473129 132.52540375 166.81891571 133.66311218 166.82322693 134.83529663 C166.83157059 135.87265961 166.83991425 136.91002258 166.84851074 137.9788208 C166.85366447 138.88138233 166.85881821 139.78394386 166.86412811 140.71385574 C166.91056565 143.16400892 166.91056565 143.16400892 168 146 C167.47139754 149.17161476 166.23268321 152.04156029 165 155 C164.67 155 164.34 155 164 155 C164 153.35 164 151.7 164 150 C163.01 150 162.02 150 161 150 C161 200.16 161 250.32 161 302 C107.54 302 54.08 302 -1 302 C-1 301.67 -1 301.34 -1 301 C52.13 301 105.26 301 160 301 C160 202 160 103 160 1 C107.2 1 54.4 1 0 1 C0 0.67 0 0.34 0 0 Z " fill="#6C92B4" transform="translate(165,21)"/>
<path d="M0 0 C2 2 2 2 2.1953125 4.3828125 C2.17210937 5.28773438 2.14890625 6.19265625 2.125 7.125 C2.10695313 8.03507812 2.08890625 8.94515625 2.0703125 9.8828125 C2.03550781 10.93082031 2.03550781 10.93082031 2 12 C2.91145657 12.00423194 3.82291313 12.00846388 4.76198959 12.01282406 C26.97280772 12.11627403 49.18359509 12.22493278 71.39435959 12.33933926 C82.13545428 12.39454137 92.8765523 12.44800146 103.61767578 12.49731445 C112.98314992 12.54031625 122.3486009 12.58663356 131.71403909 12.63687855 C136.6697415 12.66335122 141.62543971 12.68820002 146.58116913 12.70907402 C151.25309024 12.72880509 155.92496778 12.75299542 160.59684944 12.78049088 C162.30433668 12.78977488 164.01183341 12.79748029 165.71933556 12.80341911 C174.86224133 12.83617708 183.89191476 13.1291126 193 14 C195.16439336 14.11972575 197.32988938 14.2229171 199.49633789 14.29663086 C201.21499306 14.35519005 201.21499306 14.35519005 202.96836853 14.41493225 C204.18665848 14.45202805 205.40494843 14.48912384 206.66015625 14.52734375 C207.63472621 14.55797063 207.63472621 14.55797063 208.62898445 14.58921623 C226.66467895 15.14982806 244.70745155 15.33177221 262.75 15.53222656 C267.31057465 15.58359931 271.87110483 15.63866386 276.43164062 15.69335938 C285.28772222 15.79905741 294.14384243 15.9008724 303 16 C299.04396214 20.21464718 296.61264843 20.86038867 290.85205078 21.08300781 C288.42096655 21.13457167 285.99406926 21.13640689 283.5625 21.125 C282.33176758 21.13080078 282.33176758 21.13080078 281.07617188 21.13671875 C280.26857422 21.13542969 279.46097656 21.13414062 278.62890625 21.1328125 C277.90775635 21.13168457 277.18660645 21.13055664 276.44360352 21.12939453 C274 21 274 21 270.64770508 20.5 C267.05052672 20.00692582 263.6361548 19.87067965 260.0078125 19.8671875 C258.72648437 19.86589844 257.44515625 19.86460937 256.125 19.86328125 C255.14080078 19.86642334 255.14080078 19.86642334 254.13671875 19.86962891 C252.10930087 19.87504192 250.0820991 19.86963218 248.0546875 19.86328125 C246.78109375 19.86457031 245.5075 19.86585938 244.1953125 19.8671875 C243.03016113 19.86831543 241.86500977 19.86944336 240.66455078 19.87060547 C238.07896553 19.69704221 238.07896553 19.69704221 237 21 C234.59249399 21.1009312 232.21978238 21.13869071 229.8125 21.125 C228.49894531 21.12757813 227.18539062 21.13015625 225.83203125 21.1328125 C222 21 222 21 219.1015625 20.5 C214.90750269 19.82387953 210.80305791 19.85510684 206.5625 19.875 C205.74201172 19.87113281 204.92152344 19.86726563 204.07617188 19.86328125 C200.55796557 19.8688969 197.2340419 19.96427485 193.75 20.49609375 C187.98831328 21.2703204 182.24409049 21.18438655 176.4375 21.1875 C174.62862305 21.20586914 174.62862305 21.20586914 172.78320312 21.22460938 C171.61595703 21.22654297 170.44871094 21.22847656 169.24609375 21.23046875 C168.19091553 21.23457764 167.1357373 21.23868652 166.04858398 21.24291992 C162.75925285 20.98081658 160.10064961 20.092548 157 19 C153.38970831 19 150.44193324 19.96092582 147 21 C147 20.34 147 19.68 147 19 C146.34 18.67 145.68 18.34 145 18 C145.33 17.67 145.66 17.34 146 17 C145.3429199 17.00184359 144.68583981 17.00368717 144.00884819 17.00558662 C127.96446859 17.04990168 111.9201105 17.08292239 95.87568474 17.10362434 C88.1164822 17.11390369 80.35732071 17.12789951 72.59814453 17.15087891 C65.82927042 17.17091576 59.06042605 17.18374067 52.2915231 17.18817699 C48.71287482 17.19076708 45.13431158 17.19678379 41.55569077 17.21146011 C37.54473978 17.22777355 33.53393335 17.22797315 29.52294922 17.22705078 C27.775056 17.23783661 27.775056 17.23783661 25.99185181 17.24884033 C17.85169145 17.22873408 10.02694939 16.33266545 2 15 C2 14.34 2 13.68 2 13 C1.34 13 0.68 13 0 13 C0 8.71 0 4.42 0 0 Z " fill="#633C67" transform="translate(21,312)"/>
<path d="M0 0 C0 0.66 0 1.32 0 2 C1.98 2.495 1.98 2.495 4 3 C-42.86 3 -89.72 3 -138 3 C-138.33 5.31 -138.66 7.62 -139 10 C-139.495 10.763125 -139.99 11.52625 -140.5 12.3125 C-144.17040245 18.88863772 -143.15907302 28.12317692 -143.20532227 35.49853516 C-143.21522186 36.49485962 -143.22512146 37.49118408 -143.23532104 38.5177002 C-143.26663054 41.77479771 -143.29157123 45.03190975 -143.31640625 48.2890625 C-143.33700224 50.56163895 -143.35799936 52.8342118 -143.37937927 55.10678101 C-143.43432697 61.06114772 -143.48385562 67.01554742 -143.53222656 72.9699707 C-143.58264209 79.05683292 -143.63822305 85.14364779 -143.69335938 91.23046875 C-143.80060654 103.15360529 -143.90212449 115.07678311 -144 127 C-144.66 127.33 -145.32 127.66 -146 128 C-148.11792096 124.82311855 -148.24837708 124.07832116 -148.2361908 120.44784546 C-148.23775177 119.51434265 -148.23931274 118.58083984 -148.24092102 117.61904907 C-148.23223495 116.59669159 -148.22354889 115.57433411 -148.21459961 114.52099609 C-148.21316956 113.44261475 -148.2117395 112.3642334 -148.21026611 111.25317383 C-148.20205994 107.67645698 -148.17825108 104.10006739 -148.15234375 100.5234375 C-148.13886462 98.03821914 -148.12556649 95.5529998 -148.11244202 93.06777954 C-148.08192554 87.85060599 -148.04254256 82.63357798 -147.99829102 77.41650391 C-147.94198669 70.7418577 -147.92034139 64.0675837 -147.9054327 57.39270592 C-147.88865357 52.25545217 -147.84959992 47.11853988 -147.80444527 41.98146439 C-147.78646663 39.52162837 -147.77656258 37.06171929 -147.77497673 34.60181808 C-147.77042455 31.15235722 -147.73454619 27.70453311 -147.69116211 24.25537109 C-147.69664566 23.245159 -147.70212921 22.2349469 -147.70777893 21.19412231 C-147.5483321 12.85748233 -144.86254588 7.36349141 -139.5 1.0625 C-131.02896439 -5.19184014 -116.2482082 -3.36799615 -106.08203125 -3.484375 C-104.4556973 -3.50829446 -102.82936983 -3.53265801 -101.20304871 -3.55743408 C-97.79842009 -3.60707502 -94.39379013 -3.64987593 -90.98901367 -3.68798828 C-87.57538205 -3.72678138 -84.16213157 -3.77510089 -80.7487793 -3.83349609 C-10.08218731 -5.04109366 -10.08218731 -5.04109366 0 0 Z " fill="#976856" transform="translate(162,18)"/>
<path d="M0 0 C0.33 0 0.66 0 1 0 C1 48.51 1 97.02 1 147 C50.83 147 100.66 147 152 147 C152 147.33 152 147.66 152 148 C144.72340012 149.14095138 137.55103232 149.14098087 130.19604492 149.12939453 C128.8105871 149.13075152 127.42512964 149.13253312 126.03967285 149.13470459 C122.29831986 149.1392414 118.55699461 149.13750543 114.81564116 149.1343255 C110.89461555 149.13178499 106.97359224 149.13414391 103.05256653 149.13571167 C96.47490006 149.13752736 89.89724484 149.1351417 83.31958008 149.13037109 C75.71344517 149.12491831 68.10733703 149.1267009 60.50120276 149.1321975 C53.964316 149.13673226 47.4274373 149.13737773 40.89054948 149.13475883 C36.98879292 149.13319952 33.08704895 149.13299309 29.1852932 149.13629532 C25.52204251 149.13917967 21.85882647 149.13718793 18.19557953 149.13140106 C16.20786588 149.12944461 14.22014931 149.13242179 12.23243713 149.13552856 C10.46399948 149.13129883 10.46399948 149.13129883 8.65983582 149.12698364 C7.11989598 149.1264181 7.11989598 149.1264181 5.54884624 149.12584114 C3 149 3 149 0 148 C-0.04898437 147.32453125 -0.09796875 146.6490625 -0.1484375 145.953125 C-0.22320313 145.06109375 -0.29796875 144.1690625 -0.375 143.25 C-0.44460937 142.36828125 -0.51421875 141.4865625 -0.5859375 140.578125 C-1.00047833 137.99702173 -1.77860999 136.28390001 -3 134 C-3 133.34 -3 132.68 -3 132 C-3.33 132 -3.66 132 -4 132 C-3.67 124.74 -3.34 117.48 -3 110 C-3.33 110 -3.66 110 -4 110 C-4 105.05 -4 100.1 -4 95 C-3.67 95 -3.34 95 -3 95 C-2.97296438 92.41659616 -2.95314389 89.83347692 -2.9375 87.25 C-2.92912109 86.52039063 -2.92074219 85.79078125 -2.91210938 85.0390625 C-2.89598953 81.4926957 -3.14405002 78.4171356 -4 75 C-4.11954527 71.23432404 -4.19088824 67.93323139 -3.4375 64.25 C-2.96216904 61.80544076 -3.22018293 60.33945122 -4 58 C-3.67 58 -3.34 58 -3 58 C-2.94616152 55.54137599 -2.90640962 53.0839245 -2.875 50.625 C-2.85824219 49.92632812 -2.84148438 49.22765625 -2.82421875 48.5078125 C-2.80655733 46.67102514 -2.89696739 44.83398037 -3 43 C-3.66 42.34 -4.32 41.68 -5 41 C-5.14148447 38.56642931 -5.16227333 36.26041373 -5.08203125 33.83203125 C-5.06412033 33.11899338 -5.04620941 32.40595551 -5.02775574 31.67131042 C-4.98651925 30.15889653 -4.93992735 28.6466207 -4.88842773 27.13452148 C-4.81337053 24.83912265 -4.76397911 22.54416654 -4.71679688 20.24804688 C-4.67344314 18.77599465 -4.62856839 17.30398628 -4.58203125 15.83203125 C-4.56936722 15.15259964 -4.55670319 14.47316803 -4.5436554 13.77314758 C-4.35449087 9.06232318 -3.50642375 3.50642375 0 0 Z " fill="#9C526E" transform="translate(23,176)"/>
<path d="M0 0 C2.1875 2.9375 2.1875 2.9375 4 6 C4.99 7.485 4.99 7.485 6 9 C4.71025772 8.83923477 3.42051544 8.67846954 2.09169006 8.51283264 C-2.77152949 7.97493447 -7.57762297 7.82866796 -12.46704102 7.79467773 C-13.36568375 7.78477814 -14.26432648 7.77487854 -15.19020081 7.76467896 C-18.12807683 7.73336852 -21.06596897 7.70842843 -24.00390625 7.68359375 C-26.05370986 7.66299784 -28.10350947 7.64200072 -30.15330505 7.62062073 C-35.52406561 7.56567221 -40.89486275 7.51614393 -46.26568604 7.46777344 C-51.75593282 7.41735851 -57.24612709 7.36177724 -62.73632812 7.30664062 C-73.49084045 7.19939245 -84.24539856 7.09787473 -95 7 C-95 7.66 -95 8.32 -95 9 C-96.70313354 9.03758423 -96.70313354 9.03758423 -98.44067383 9.07592773 C-102.65075081 9.17005576 -106.86066488 9.27026337 -111.07055664 9.37231445 C-112.89310904 9.41564287 -114.71570148 9.45731947 -116.53833008 9.49731445 C-119.15718661 9.55506762 -121.77584195 9.61874756 -124.39453125 9.68359375 C-125.21025101 9.70030624 -126.02597076 9.71701874 -126.8664093 9.73423767 C-130.14179544 9.82013245 -132.87256401 9.95752134 -136 11 C-137.49676706 11.11659598 -138.99875061 11.17498959 -140.5 11.1875 C-141.66015625 11.20876953 -141.66015625 11.20876953 -142.84375 11.23046875 C-145 11 -145 11 -148 9 C-148 8.34 -148 7.68 -148 7 C-144.86501708 5.14223235 -142.62528568 4.79859524 -139 5 C-139 5.66 -139 6.32 -139 7 C-137.68 6.34 -136.36 5.68 -135 5 C-134.01 5.66 -133.02 6.32 -132 7 C-129.43599277 6.36311933 -129.43599277 6.36311933 -126.8125 5.125 C-125.91144531 4.73570313 -125.01039063 4.34640625 -124.08203125 3.9453125 C-123.39496094 3.63335938 -122.70789063 3.32140625 -122 3 C-121.67 3.33 -121.34 3.66 -121 4 C-119.38760422 4.01691059 -117.77439882 3.96211123 -116.1640625 3.87890625 C-115.13249023 3.83064697 -114.10091797 3.7823877 -113.03808594 3.73266602 C-111.91176758 3.67651123 -110.78544922 3.62035645 -109.625 3.5625 C-98.90963381 3.07238613 -88.23929692 2.91727974 -77.51416016 3.12524414 C-70.77657518 3.19980494 -64.41634987 2.58488564 -57.76269531 1.5456543 C-51.45274009 0.63060434 -45.11090598 0.10437288 -38.75927734 -0.43261719 C-36.50157596 -0.6248658 -34.24499207 -0.82773998 -31.98828125 -1.03125 C-6.30384672 -3.28199839 -6.30384672 -3.28199839 0 0 Z " fill="#346079" transform="translate(321,10)"/>
<path d="M0 0 C0.66 0.66 1.32 1.32 2 2 C0.02 4.31 -1.96 6.62 -4 9 C-4.33 7.68 -4.66 6.36 -5 5 C-3.5399926 2.56665433 -2.54764436 1.27382218 0 0 Z M2 3 C2.99 3.495 2.99 3.495 4 4 C2.97127935 5.28133549 1.92627562 6.54960397 0.875 7.8125 C0.29492188 8.52019531 -0.28515625 9.22789062 -0.8828125 9.95703125 C-5.53580609 14.44691252 -9.92821719 15.37210848 -16.25756836 15.26464844 C-16.95967438 15.25693924 -17.6617804 15.24923004 -18.38516235 15.24128723 C-20.70387036 15.21207369 -23.02153283 15.16090168 -25.33984375 15.109375 C-26.98334355 15.083792 -28.62686397 15.05950507 -30.270401 15.03643799 C-34.61369196 14.97167117 -38.95642749 14.88798985 -43.29931641 14.80072021 C-47.59844152 14.71806768 -51.89785011 14.65523469 -56.19726562 14.58984375 C-71.88551806 14.34241058 -87.57107969 13.99818609 -103.25390625 13.515625 C-104.47746323 13.47926941 -105.7010202 13.44291382 -106.96165466 13.40545654 C-113.41888475 13.19213424 -119.82701615 12.79731571 -126.26194763 12.22457886 C-130.11601025 11.90846329 -133.96316932 11.77539129 -137.828125 11.68359375 C-138.5880072 11.66281265 -139.3478894 11.64203156 -140.13079834 11.62062073 C-142.50379463 11.55643232 -144.87687867 11.49686438 -147.25 11.4375 C-148.88151866 11.39418965 -150.51302919 11.35057196 -152.14453125 11.30664062 C-156.09626957 11.20089024 -160.04809396 11.09927648 -164 11 C-164 10.67 -164 10.34 -164 10 C-156.41601731 8.7705014 -148.89770469 8.90927882 -141.23388672 8.98168945 C-139.74492742 8.99180728 -138.25596433 9.00138017 -136.76699829 9.01045227 C-133.57390071 9.03047921 -130.38083735 9.05318822 -127.18777084 9.07766151 C-122.13637367 9.11519218 -117.08496692 9.13950455 -112.03347778 9.16069031 C-110.75209374 9.16614639 -110.75209374 9.16614639 -109.44482315 9.1717127 C-107.69889209 9.17911749 -105.9529609 9.18648998 -104.20702958 9.19383085 C-92.45605222 9.24373445 -80.70529382 9.30220677 -68.95458984 9.39770508 C-61.01380086 9.46214062 -53.0732104 9.50529301 -45.13217747 9.52386063 C-40.93435342 9.53453252 -36.73721869 9.55613037 -32.53963852 9.60381508 C-28.59465406 9.64847381 -24.65054332 9.66510103 -20.70531845 9.66035271 C-19.25969315 9.6635955 -17.81404801 9.6771122 -16.36862946 9.7017746 C-8.75344777 10.06717643 -8.75344777 10.06717643 -1.77508926 7.61943626 C0.10890557 5.85557669 0.10890557 5.85557669 2 3 Z " fill="#785784" transform="translate(331,314)"/>
<path d="M0 0 C0 0.99 0 1.98 0 3 C-14.67068377 3.10727803 -29.27806562 3.04092657 -43.9375 2.4375 C-57.56625311 1.90001818 -71.11752542 2.13915151 -84.74584961 2.59350586 C-85.88648109 2.63152061 -85.88648109 2.63152061 -87.05015564 2.67030334 C-88.5453508 2.72039362 -90.04051977 2.77127266 -91.53565979 2.82298279 C-97.61613313 3.02055034 -103.68302908 3.00955646 -109.765625 2.92211914 C-113.02942391 2.91276613 -113.02942391 2.91276613 -116.296875 3.62670898 C-117.18890625 3.74989502 -118.0809375 3.87308105 -119 4 C-119.66 3.34 -120.32 2.68 -121 2 C-96.03161536 -16.94153318 -28.61859327 -4.56935523 0 0 Z " fill="#664933" transform="translate(149,9)"/>
<path d="M0 0 C2 2 2 2 2.1953125 4.3828125 C2.17210937 5.28773438 2.14890625 6.19265625 2.125 7.125 C2.10695313 8.03507812 2.08890625 8.94515625 2.0703125 9.8828125 C2.03550781 10.93082031 2.03550781 10.93082031 2 12 C3.12533646 12.00634791 3.12533646 12.00634791 4.27340698 12.01282406 C22.54389357 12.11621347 40.81434199 12.22486349 59.08476257 12.33933926 C67.92026477 12.39457296 76.755771 12.44803851 85.59130859 12.49731445 C93.29404587 12.54027727 100.9967546 12.58658527 108.69944763 12.63687855 C112.77640875 12.66338232 116.85336456 12.68823241 120.93035889 12.70907402 C124.77164885 12.72876363 128.61288497 12.75294285 132.45412636 12.78049088 C133.8601311 12.78979646 135.26614759 12.79749456 136.67217064 12.80341911 C143.52995752 12.83319405 150.2182953 12.93419958 157 14 C154.14931065 15.60231788 151.99992928 16.27261026 148.73950195 16.40815735 C147.47845894 16.46498452 147.47845894 16.46498452 146.19194031 16.52295971 C145.27910782 16.55316865 144.36627533 16.58337759 143.42578125 16.61450195 C142.45699539 16.65202985 141.48820953 16.68955774 140.49006653 16.72822285 C128.39247027 17.15471208 116.29115184 17.16426027 104.1875 17.16796875 C101.67415347 17.17119283 99.16080711 17.1745577 96.64746094 17.17805481 C91.42366093 17.18398891 86.19987735 17.1859003 80.97607422 17.18530273 C75.6443318 17.18522098 70.3126757 17.19188311 64.98095703 17.20581055 C58.47814507 17.22254522 51.97539762 17.2293566 45.4725647 17.22869301 C43.01681144 17.22986445 40.56105735 17.23423867 38.10531616 17.24202538 C13.61768063 17.31250814 13.61768063 17.31250814 2 15 C2 14.34 2 13.68 2 13 C1.34 13 0.68 13 0 13 C0 8.71 0 4.42 0 0 Z " fill="#873F5B" transform="translate(21,312)"/>
<path d="M0 0 C1.21590317 0.16265854 2.43180634 0.32531708 3.68455505 0.49290466 C9.80506873 1.16808661 15.8957689 1.13206975 22.04711914 1.11352539 C23.96566711 1.11374443 23.96566711 1.11374443 25.92297363 1.1139679 C29.40374896 1.11425292 32.8844893 1.1084041 36.36525655 1.10139394 C40.01274386 1.09511108 43.66023211 1.09455272 47.307724 1.09336853 C54.20292078 1.09026969 61.09810156 1.08207593 67.99329132 1.07201904 C75.84824558 1.06081281 83.70320063 1.05533612 91.5581609 1.05032361 C107.70544994 1.03989201 123.85272292 1.02232077 140 1 C137.29046582 3.06601095 134.69963761 4.8291222 131.625 6.3125 C130.89539063 6.67988281 130.16578125 7.04726563 129.4140625 7.42578125 C127 8 127 8 124.52633667 7.0480957 C119.69014026 5.61068426 115.18212667 5.75351523 110.16455078 5.8046875 C109.08412506 5.80760803 108.00369934 5.81052856 106.89053345 5.8135376 C104.54973644 5.82113516 102.20895086 5.83335311 99.86819839 5.84967041 C96.16055249 5.87523972 92.45305003 5.8882399 88.74533081 5.89794922 C80.2037139 5.92273146 71.6622146 5.96605854 63.12068176 6.01040649 C54.6703882 6.05407061 46.22015034 6.08977097 37.76977158 6.11187744 C34.12263578 6.1248144 30.47571051 6.1498317 26.8286438 6.17529297 C24.58384381 6.18256104 22.33904189 6.18926412 20.09423828 6.1953125 C18.58059692 6.21081146 18.58059692 6.21081146 17.03637695 6.22662354 C11.33442639 6.22747451 6.46958392 5.63394424 1 4 C0.67 2.68 0.34 1.36 0 0 Z " fill="#75344D" transform="translate(28,327)"/>
<path d="M0 0 C0.66 0 1.32 0 2 0 C2.144375 1.11375 2.28875 2.2275 2.4375 3.375 C2.78372035 6.82142047 2.78372035 6.82142047 4 9 C3.44140625 10.98828125 3.44140625 10.98828125 2.5625 13.3125 C0.88063977 18.14977689 0.40266614 21.14936967 2.00335693 26.10855103 C3.21850578 30.30963631 3.28153336 34.28867694 3.25878906 38.63818359 C3.2622937 39.47330978 3.26579834 40.30843597 3.26940918 41.16886902 C3.27816564 43.91214468 3.27239784 46.65515949 3.265625 49.3984375 C3.26697365 51.31743417 3.26891585 53.23643052 3.27142334 55.15542603 C3.27436658 59.17168439 3.27010363 63.18785359 3.26074219 67.20410156 C3.2493636 72.33391634 3.25590215 77.46352143 3.26788712 82.59332848 C3.27514048 86.55518145 3.27280159 90.51698536 3.26763153 94.47883987 C3.26630384 96.36934052 3.26791167 98.25984571 3.27259064 100.15034103 C3.27771149 102.80135512 3.26986755 105.45203772 3.25878906 108.10302734 C3.26283752 108.8731868 3.26688599 109.64334625 3.27105713 110.43684387 C3.22958441 115.83662947 2.35121908 120.7769318 1 126 C1.66 126.33 2.32 126.66 3 127 C1.02 128.98 1.02 128.98 -1 131 C-1.90251277 124.83776183 -2.14827764 118.85414767 -2.14526367 112.63110352 C-2.14862228 111.6233638 -2.1519809 110.61562408 -2.15544128 109.5773468 C-2.16490215 106.26118723 -2.16689236 102.94507847 -2.16796875 99.62890625 C-2.17118616 97.30451945 -2.17455059 94.98013285 -2.17805481 92.65574646 C-2.18403499 87.78457165 -2.185896 82.91341455 -2.18530273 78.04223633 C-2.18520151 71.8427058 -2.19881736 65.64329083 -2.21607494 59.44378757 C-2.22727448 54.64008579 -2.22921947 49.83641117 -2.22869301 45.03269768 C-2.22986257 42.74967999 -2.23422585 40.46666136 -2.24202538 38.18365669 C-2.28189695 25.30071799 -1.91783617 12.7517943 0 0 Z " fill="#5D4D81" transform="translate(331,183)"/>
<path d="M0 0 C0 0.66 0 1.32 0 2 C-0.81154541 2.03963867 -1.62309082 2.07927734 -2.45922852 2.12011719 C-6.16154969 2.3114844 -9.86174579 2.53047924 -13.5625 2.75 C-15.47772461 2.8428125 -15.47772461 2.8428125 -17.43164062 2.9375 C-25.27443399 3.4264014 -31.16928801 3.89566573 -36.75 9.875 C-37.1625 10.57625 -37.575 11.2775 -38 12 C-38.51284546 12.81817703 -39.02569092 13.63635406 -39.55407715 14.47932434 C-41.5047847 19.2290996 -41.41685913 23.37029109 -41.38476562 28.45581055 C-41.3901384 29.49549988 -41.39551117 30.53518921 -41.40104675 31.60638428 C-41.41080942 33.85712007 -41.41377349 36.10789344 -41.41069031 38.3586483 C-41.40621056 41.91805883 -41.42021581 45.47697273 -41.43908691 49.03633118 C-41.48209973 57.87172988 -41.49313997 66.70711746 -41.50531006 75.54260254 C-41.51681792 83.01701729 -41.54031158 90.49120484 -41.58000183 97.96552467 C-41.59361605 101.47716807 -41.58939406 104.98850822 -41.58459473 108.50016785 C-41.59393063 110.64424025 -41.60409825 112.78830924 -41.61523438 114.93237305 C-41.60908615 115.91268997 -41.60293793 116.8930069 -41.59660339 117.9030304 C-41.60890739 119.24668167 -41.60890739 119.24668167 -41.62145996 120.61747742 C-41.62217247 121.39597392 -41.62288498 122.17447042 -41.62361908 122.97655773 C-42.09204272 125.49482619 -43.06150547 126.3900922 -45 128 C-44.99777939 126.74354675 -44.99555878 125.48709351 -44.99327087 124.19256592 C-44.97301492 112.36203205 -44.95801599 100.5315017 -44.94818783 88.70095444 C-44.94296526 82.61850004 -44.93587891 76.53605963 -44.92456055 70.45361328 C-44.91370951 64.58570467 -44.90771844 58.71780953 -44.90512276 52.84989166 C-44.90327252 50.60916176 -44.89965957 48.36843262 -44.89426994 46.12770844 C-44.88703017 42.9936513 -44.88601031 39.85965007 -44.88647461 36.72558594 C-44.88287933 35.79554245 -44.87928406 34.86549896 -44.87557983 33.90727234 C-44.8769545 33.05194412 -44.87832916 32.19661591 -44.87974548 31.31536865 C-44.87882369 30.57424709 -44.8779019 29.83312553 -44.87695217 29.06954575 C-44.92690923 26.97150311 -44.92690923 26.97150311 -45.59345341 24.91388321 C-46.25315832 21.80821666 -44.44418151 19.72172669 -43 17 C-42.7834375 15.7625 -42.7834375 15.7625 -42.5625 14.5 C-41.57014739 10.08954398 -38.94218923 7.0278428 -35.9375 3.75 C-25.71146175 -2.34210789 -11.47007152 -0.19731498 0 0 Z " fill="#875D4D" transform="translate(57,13)"/>
<path d="M0 0 C0.79540192 -0.00426498 1.59080383 -0.00852997 2.41030884 -0.01292419 C3.27459503 -0.01247101 4.13888123 -0.01201782 5.02935791 -0.0115509 C6.4061824 -0.01658882 6.4061824 -0.01658882 7.81082153 -0.02172852 C10.85536041 -0.03124676 13.89984412 -0.03318349 16.94439697 -0.03425598 C19.07836936 -0.03747299 21.21234154 -0.04083739 23.34631348 -0.04434204 C27.83539336 -0.05033901 32.32445399 -0.05218186 36.8135376 -0.05158997 C42.49683693 -0.05148946 48.18000816 -0.06502211 53.86327744 -0.08236217 C58.28381891 -0.09363486 62.7043312 -0.0955044 67.12488556 -0.09498024 C69.21511518 -0.09614214 71.30534602 -0.10046002 73.39556122 -0.10831261 C88.34674772 -0.15912807 103.08036907 0.66903153 117.96002197 2.13371277 C117.96002197 2.46371277 117.96002197 2.79371277 117.96002197 3.13371277 C75.39002197 3.13371277 32.82002197 3.13371277 -11.03997803 3.13371277 C-7.27102195 0.62107538 -4.46652117 0.01088238 0 0 Z " fill="#AF7F5A" transform="translate(40.03997802734375,17.866287231445313)"/>
<path d="M0 0 C1.97910873 -0.00261337 1.97910873 -0.00261337 3.99819946 -0.00527954 C11.14201291 -0.0007935 18.26919816 0.10353749 25.40625 0.421875 C26.4627626 0.46738998 26.4627626 0.46738998 27.5406189 0.51382446 C31.02682273 0.7298389 32.54025894 1.05288096 35.53125 3.046875 C-10.00875 3.046875 -55.54875 3.046875 -102.46875 3.046875 C-98.89970707 0.66751304 -96.33889348 0.74084516 -92.21630859 0.72802734 C-91.47883896 0.71798172 -90.74136932 0.7079361 -89.98155212 0.69758606 C-87.52677148 0.66656763 -85.07210343 0.64962162 -82.6171875 0.6328125 C-80.88448207 0.61405506 -79.15178534 0.59447844 -77.4190979 0.5741272 C-72.82537289 0.52261303 -68.23161635 0.48319608 -63.63775635 0.44598389 C-59.99289144 0.41453312 -56.34814306 0.3747453 -52.70336723 0.33441353 C-35.13596108 0.14012064 -17.56851291 0.01357888 0 0 Z " fill="#4D7C95" transform="translate(287.46875,17.953125)"/>
<path d="M0 0 C0.33 0 0.66 0 1 0 C1 26.4 1 52.8 1 80 C-1.44650677 75.10698646 -1.41638853 71.19166787 -1.65625 65.80078125 C-1.82640625 64.41439453 -1.82640625 64.41439453 -2 63 C-2.66 62.67 -3.32 62.34 -4 62 C-3.83886719 61.49726563 -3.67773438 60.99453125 -3.51171875 60.4765625 C-2.81648397 57.11183844 -2.81577585 53.79498593 -2.8125 50.375 C-2.80025391 49.694375 -2.78800781 49.01375 -2.77539062 48.3125 C-2.77013645 46.54009244 -2.87784094 44.7682006 -3 43 C-3.66 42.34 -4.32 41.68 -5 41 C-5.14148447 38.56642931 -5.16227333 36.26041373 -5.08203125 33.83203125 C-5.06412033 33.11899338 -5.04620941 32.40595551 -5.02775574 31.67131042 C-4.98651925 30.15889653 -4.93992735 28.6466207 -4.88842773 27.13452148 C-4.81337053 24.83912265 -4.76397911 22.54416654 -4.71679688 20.24804688 C-4.67344314 18.77599465 -4.62856839 17.30398628 -4.58203125 15.83203125 C-4.56936722 15.15259964 -4.55670319 14.47316803 -4.5436554 13.77314758 C-4.35449087 9.06232318 -3.50642375 3.50642375 0 0 Z " fill="#AF6C6E" transform="translate(23,176)"/>
<path d="M0 0 C0.74081818 -0.00200409 1.48163635 -0.00400818 2.24490356 -0.006073 C18.25291541 -0.01654176 35.74626545 0.01007259 51.25 4.25 C51.25 4.91 51.25 5.57 51.25 6.25 C48.5624345 6.10530862 45.87495345 5.95924766 43.1875 5.8125 C42.45466797 5.77318359 41.72183594 5.73386719 40.96679688 5.69335938 C37.26162312 5.490122 33.56033823 5.27304016 29.85961914 4.99829102 C20.5007183 4.31159732 11.19329461 4.05301327 1.8125 4.0625 C1.07052368 4.0617749 0.32854736 4.0610498 -0.43591309 4.06030273 C-15.53116687 4.06190955 -30.52711061 4.90038711 -45.57324219 6.06640625 C-48.97203612 6.26283209 -52.34629163 6.28005482 -55.75 6.25 C-52.47645513 2.46365477 -48.88140857 2.51374493 -44.125 2.125 C-43.37476563 2.05152344 -42.62453125 1.97804688 -41.8515625 1.90234375 C-27.92938399 0.60567026 -13.97837701 0.01874332 0 0 Z " fill="#594131" transform="translate(88.75,3.75)"/>
<path d="M0 0 C0.99 0 1.98 0 3 0 C2.89263877 17.46368897 2.77985576 34.92733343 2.66066074 52.39094543 C2.60543917 60.50003659 2.55197572 68.60913216 2.50268555 76.71826172 C2.45970777 83.78814849 2.41339618 90.85800431 2.36312145 97.92784309 C2.33662962 101.66945528 2.31178002 105.41106176 2.29092598 109.15270996 C2.26755387 113.33492578 2.23673719 117.51705561 2.20532227 121.69921875 C2.1995668 122.93280624 2.19381134 124.16639374 2.18788147 125.43736267 C2.137152 131.38108705 1.90360515 137.12264665 1 143 C0.67 143 0.34 143 0 143 C0 95.81 0 48.62 0 0 Z " fill="#7B6B9F" transform="translate(326,171)"/>
<path d="M0 0 C2.1875 2.9375 2.1875 2.9375 4 6 C4.99 7.485 4.99 7.485 6 9 C5.443125 8.71125 4.88625 8.4225 4.3125 8.125 C-0.35396233 5.85482914 -3.92834977 4.74623168 -9.16723633 4.68115234 C-10.38812454 4.66128265 -11.60901276 4.64141296 -12.86689758 4.62094116 C-14.17539169 4.60938995 -15.4838858 4.59783875 -16.83203125 4.5859375 C-18.19253194 4.56721453 -19.55302117 4.54764027 -20.91349792 4.5272522 C-24.48246479 4.47604398 -28.05146926 4.43635813 -31.62060547 4.39910889 C-35.26734635 4.35899799 -38.91393234 4.30793808 -42.56054688 4.2578125 C-49.70691768 4.16118739 -56.85338575 4.07673999 -64 4 C-63.67 3.34 -63.34 2.68 -63 2 C-61.00073242 1.62109375 -61.00073242 1.62109375 -58.35546875 1.4375 C-57.37819824 1.3638623 -56.40092773 1.29022461 -55.39404297 1.21435547 C-54.33588379 1.14361816 -53.27772461 1.07288086 -52.1875 1 C-49.9855549 0.83758563 -47.78373269 0.67349723 -45.58203125 0.5078125 C-44.47424316 0.42563477 -43.36645508 0.34345703 -42.22509766 0.25878906 C-38.43118261 -0.04564318 -34.65193315 -0.43877628 -30.86865234 -0.85253906 C-6.74362293 -3.48848314 -6.74362293 -3.48848314 0 0 Z " fill="#274D64" transform="translate(321,10)"/>
<path d="M0 0 C0.33 0 0.66 0 1 0 C1 46.86 1 93.72 1 142 C-1.29719713 138.5542043 -1.19269052 137.40569862 -1.0625 133.375 C-0.95576722 129.83889675 -1.03574754 126.48135165 -1.49935913 122.98135376 C-2.11362755 117.608596 -2.09937589 112.30151844 -2.03759766 106.89990234 C-2.02959641 105.82718582 -2.02159515 104.7544693 -2.01335144 103.64924622 C-1.98562965 100.12807456 -1.95009046 96.60703322 -1.9140625 93.0859375 C-1.89227171 90.62692557 -1.87082312 88.16791059 -1.84970093 85.70889282 C-1.80431269 80.56630611 -1.75510412 75.42377421 -1.703125 70.28125 C-1.63682899 63.69635576 -1.57956628 57.11142012 -1.52509499 50.52641869 C-1.48221507 45.45287671 -1.43480201 40.37938491 -1.38599777 35.30589676 C-1.36313768 32.87786707 -1.34162395 30.44982431 -1.32149124 28.02177048 C-1.29262278 24.62822021 -1.25770892 21.23478404 -1.22119141 17.84130859 C-1.2138649 16.84268295 -1.20653839 15.84405731 -1.19898987 14.81517029 C-1.13817889 9.777781 -0.85552997 4.96664928 0 0 Z " fill="#BB8772" transform="translate(23,31)"/>
<path d="M0 0 C6.5621228 0.20561694 13.12140542 0.30493505 19.68690491 0.3132782 C21.01673401 0.31992493 21.01673401 0.31992493 22.37342834 0.32670593 C26.53879326 0.42355482 26.53879326 0.42355482 30.43690491 -0.8117218 C32.38221741 -0.03437805 32.38221741 -0.03437805 34.56190491 1.1257782 C35.64858459 1.69618835 35.64858459 1.69618835 36.75721741 2.27812195 C37.31151428 2.57847351 37.86581116 2.87882507 38.43690491 3.1882782 C38.43690491 3.5182782 38.43690491 3.8482782 38.43690491 4.1882782 C33.54787103 4.06846971 28.65897819 3.94415294 23.77015686 3.81596375 C22.11296059 3.77310937 20.455734 3.7314088 18.79847717 3.69096375 C3.26721202 3.31054872 3.26721202 3.31054872 -4.10997009 2.66093445 C-12.27637898 1.97305397 -20.4364922 2.03785734 -28.62559509 2.0632782 C-29.45070587 2.06416443 -30.27581665 2.06505066 -31.12593079 2.06596375 C-45.38147854 2.08383538 -59.59317168 2.47401777 -73.83531189 3.09843445 C-76.35636679 3.18146928 -78.86154609 3.18678781 -81.38340759 3.1570282 C-85.21153246 3.13278038 -88.84443197 3.55145072 -92.62559509 4.1882782 C-93.75094666 4.3739032 -94.87629822 4.5595282 -96.03575134 4.7507782 C-96.86977478 4.8951532 -97.70379822 5.0395282 -98.56309509 5.1882782 C-96.43809509 2.6257782 -96.43809509 2.6257782 -93.56309509 0.1882782 C-90.43809509 0.4382782 -90.43809509 0.4382782 -87.56309509 1.1882782 C-86.57309509 0.8582782 -85.58309509 0.5282782 -84.56309509 0.1882782 C-82.0345439 0.13971059 -79.52801986 0.14680056 -77.00059509 0.1882782 C-70.01103715 0.25498952 -63.04781315 0.12058835 -56.06280518 -0.14117432 C-37.32829682 -0.84082396 -18.73452167 -0.60296539 0 0 Z " fill="#7A553D" transform="translate(120.56309509277344,10.811721801757813)"/>
<path d="M0 0 C1.06973572 0.24260512 1.06973572 0.24260512 2.16108227 0.49011135 C4.98014997 0.9964348 7.56130791 1.13840668 10.42268372 1.15821838 C11.4981546 1.1680072 12.57362549 1.17779602 13.6816864 1.18788147 C15.43603752 1.19651466 15.43603752 1.19651466 17.22583008 1.20532227 C19.08498047 1.22017166 19.08498047 1.22017166 20.98168945 1.23532104 C24.37177592 1.26146082 27.76183945 1.28334256 31.15196443 1.30332303 C34.69807066 1.32523237 38.24413473 1.35259679 41.79020691 1.37937927 C48.50134309 1.42923939 55.21250277 1.47420292 61.92368478 1.51740164 C69.56576294 1.56683121 77.20779879 1.62172808 84.84983599 1.67708123 C100.56651819 1.79079867 116.28323935 1.89765989 132 2 C131 4 131 4 127.6875 5.25 C123.57612131 6.08621262 123.4308615 5.76547492 120 4 C117.74535848 3.71327287 117.74535848 3.71327287 115.32086182 3.77294922 C114.38453918 3.77309021 113.44821655 3.7732312 112.48352051 3.77337646 C111.46318726 3.78370911 110.442854 3.79404175 109.39160156 3.8046875 C107.77140106 3.8090683 107.77140106 3.8090683 106.11846924 3.8135376 C103.77218043 3.82115002 101.42590314 3.83338365 99.07965851 3.84967041 C95.36377162 3.87518438 91.64802746 3.88822614 87.93206787 3.89794922 C79.36835135 3.92276661 70.8047508 3.96604478 62.24111938 4.01040649 C53.77663886 4.05405974 45.31221417 4.08977393 36.84764862 4.11187744 C33.19165421 4.12481936 29.53586943 4.14983983 25.87994385 4.17529297 C23.62862326 4.18256144 21.37730076 4.18926448 19.12597656 4.1953125 C18.11374023 4.20564514 17.10150391 4.21597778 16.05859375 4.22662354 C10.34886206 4.22747307 5.476808 3.6370844 0 2 C0 1.34 0 0.68 0 0 Z " fill="#642941" transform="translate(29,329)"/>
<path d="M0 0 C0.66 0.66 1.32 1.32 2 2 C0.02 4.31 -1.96 6.62 -4 9 C-4.33 7.68 -4.66 6.36 -5 5 C-3.5399926 2.56665433 -2.54764436 1.27382218 0 0 Z M2 3 C2.99 3.495 2.99 3.495 4 4 C2.97127935 5.28133549 1.92627562 6.54960397 0.875 7.8125 C0.29492188 8.52019531 -0.28515625 9.22789062 -0.8828125 9.95703125 C-5.53580609 14.44691252 -9.92821719 15.37210848 -16.25756836 15.26464844 C-16.95967438 15.25693924 -17.6617804 15.24923004 -18.38516235 15.24128723 C-20.70387036 15.21207369 -23.02153283 15.16090168 -25.33984375 15.109375 C-26.98334355 15.083792 -28.62686397 15.05950507 -30.270401 15.03643799 C-34.61369196 14.97167117 -38.95642749 14.88798985 -43.29931641 14.80072021 C-46.74919177 14.73439488 -50.19920311 14.68107207 -53.64931297 14.6286087 C-74.77384457 14.30721675 -95.88688842 13.76329137 -117 13 C-117 12.67 -117 12.34 -117 12 C-116.16576508 12.00196381 -115.33153015 12.00392761 -114.47201538 12.00595093 C-93.08602542 12.04897013 -71.70465307 11.95701142 -50.3203125 11.68261719 C-47.13642841 11.64224743 -43.95255555 11.60786711 -40.76855469 11.578125 C-36.83240763 11.5413361 -32.89648031 11.49512486 -28.9605217 11.44193649 C-27.48458946 11.4235207 -26.00861252 11.4083664 -24.53261185 11.39665604 C-22.49902177 11.37982732 -20.46555523 11.34965644 -18.43212891 11.31884766 C-16.70731796 11.29886215 -16.70731796 11.29886215 -14.94766235 11.2784729 C-12.05893378 11.00556762 -10.47961228 10.41608753 -8 9 C-7.195625 8.896875 -6.39125 8.79375 -5.5625 8.6875 C-2.02717948 7.73899937 -0.40224894 5.67679168 2 3 Z " fill="#654975" transform="translate(331,314)"/>
<path d="M0 0 C0.66 0 1.32 0 2 0 C3.53851766 1.71951974 5.00731759 3.50187497 6.4375 5.3125 C9.45235569 9.16467002 9.45235569 9.16467002 12.78515625 12.73046875 C14 14 14 14 14 16 C5.42 16 -3.16 16 -12 16 C-10.11182667 12.22365334 -8.12205606 9.53999999 -5.4375 6.3125 C-4.63183594 5.33925781 -3.82617188 4.36601563 -2.99609375 3.36328125 C-1 1 -1 1 0 0 Z " fill="#14181B" transform="translate(174,104)"/>
<path d="M0 0 C2.63437876 3.14011909 3.92004727 6.11508741 5.1875 10 C5.53167969 11.03125 5.87585938 12.0625 6.23046875 13.125 C7 16 7 16 7 20 C4.41842632 20.53132389 1.83538244 21.05034379 -0.75 21.5625 C-1.47960937 21.71396484 -2.20921875 21.86542969 -2.9609375 22.02148438 C-6.66557073 22.74557178 -9.39322322 23.09817231 -13 22 C-11.40078529 19.08059205 -9.79476433 16.16498288 -8.1875 13.25 C-7.50977539 12.0125 -7.50977539 12.0125 -6.81835938 10.75 C-6.37685547 9.95078125 -5.93535156 9.1515625 -5.48046875 8.328125 C-4.87561646 7.22839355 -4.87561646 7.22839355 -4.25854492 6.10644531 C-2.96986186 3.94955735 -1.54145805 1.98215444 0 0 Z " fill="#0E1215" transform="translate(226,186)"/>
<path d="M0 0 C8.58 0 17.16 0 26 0 C24.05613861 3.88772277 21.76298958 6.95020101 19 10.25 C18.54882812 10.80429688 18.09765625 11.35859375 17.6328125 11.9296875 C16.46926971 13.32731582 15.23905262 14.66885563 14 16 C13.34 16 12.68 16 12 16 C10.46148234 14.28048026 8.99268241 12.49812503 7.5625 10.6875 C4.54764431 6.83532998 4.54764431 6.83532998 1.21484375 3.26953125 C0 2 0 2 0 0 Z " fill="#0D1013" transform="translate(162,223)"/>
<path d="M0 0 C3.65559757 2.66759822 6.02537925 4.91299425 8 9 C8.29296875 12.33203125 8.29296875 12.33203125 8.1875 15.8125 C8.14689453 17.55466797 8.14689453 17.55466797 8.10546875 19.33203125 C8.07066406 20.21246094 8.03585937 21.09289062 8 22 C7.01 22 6.02 22 5 22 C4.505 16.06 4.505 16.06 4 10 C-0.73115802 9.11457409 -5.42645481 8.69651598 -10.22607422 8.44360352 C-11.0121147 8.40142228 -11.79815517 8.35924105 -12.60801506 8.31578159 C-21.20039122 7.8900497 -29.78204032 7.87346754 -38.3828125 7.90234375 C-40.06102455 7.90421614 -41.73923715 7.90563614 -43.41744995 7.90663147 C-47.76720779 7.91039217 -52.11693053 7.92016471 -56.4666748 7.93133545 C-60.93220546 7.94169084 -65.39774197 7.94615889 -69.86328125 7.95117188 C-78.57553667 7.96179498 -87.28776393 7.97879053 -96 8 C-96 7.34 -96 6.68 -96 6 C-84.14285955 5.97679795 -72.28572453 5.95904485 -60.42856598 5.94818783 C-54.92242123 5.9429762 -49.41629204 5.93590982 -43.91015625 5.92456055 C-38.59335681 5.9136705 -33.27657231 5.9077102 -27.95976257 5.90512276 C-25.93446111 5.90327953 -23.90916043 5.89968019 -21.88386536 5.89426994 C-19.04039766 5.88697831 -16.19699121 5.88601248 -13.35351562 5.88647461 C-12.52200989 5.88287933 -11.69050415 5.87928406 -10.83380127 5.87557983 C-5.80217859 5.88438992 -0.98139833 6.28109426 4 7 C3.01 6.1028125 3.01 6.1028125 2 5.1875 C0 3 0 3 0 0 Z " fill="#406F89" transform="translate(322,11)"/>
<path d="M0 0 C2.44346528 2.24675132 4.0471894 4.54177401 5.69921875 7.4140625 C6.18583984 8.25710937 6.67246094 9.10015625 7.17382812 9.96875 C7.9230957 11.28359375 7.9230957 11.28359375 8.6875 12.625 C9.19861328 13.50929687 9.70972656 14.39359375 10.23632812 15.3046875 C14 21.85719501 14 21.85719501 14 23 C7.15182898 22.51358785 0.66957927 21.64006048 -6 20 C-5.50104522 12.84831485 -2.68436185 6.58708719 0 0 Z " fill="#12171B" transform="translate(123,186)"/>
<path d="M0 0 C0.33 0 0.66 0 1 0 C0.91618482 14.17738804 0.82095144 28.35465966 0.71247292 42.53188133 C0.6624424 49.11433158 0.61611309 55.69676524 0.578125 62.27929688 C0.54135741 68.62708441 0.49502101 74.97473544 0.44193649 81.32240677 C0.42334708 83.74897501 0.40825611 86.17557257 0.39665604 88.6021843 C0.37987123 91.99062959 0.35085527 95.37875908 0.31884766 98.76708984 C0.31668747 99.77912979 0.31452728 100.79116974 0.31230164 101.83387756 C0.30113815 102.75376968 0.28997467 103.6736618 0.2784729 104.62142944 C0.27294214 105.42338934 0.26741138 106.22534924 0.26171303 107.05161095 C0 109 0 109 -2 111 C-2.04634073 97.41333907 -2.08187811 83.82669694 -2.10362434 70.23997307 C-2.11406143 63.9311125 -2.12821942 57.62230601 -2.15087891 51.31347656 C-2.17260972 45.22510369 -2.18456919 39.13678284 -2.18975449 33.04837418 C-2.19344979 30.72555854 -2.20066575 28.40274574 -2.21146011 26.07995224 C-2.225978 22.82651365 -2.22797779 19.57328999 -2.22705078 16.31982422 C-2.23424133 15.35956833 -2.24143188 14.39931244 -2.24884033 13.40995789 C-2.23380064 8.53189188 -1.91618553 4.57759716 0 0 Z " fill="#A77360" transform="translate(20,37)"/>
<path d="M0 0 C0.66 0.33 1.32 0.66 2 1 C9.85585699 2.14514531 17.76763385 2.12554854 25.6875 2.0625 C26.78255859 2.05798828 27.87761719 2.05347656 29.00585938 2.04882812 C31.67063309 2.03719156 34.33528517 2.02084564 37 2 C37 2.66 37 3.32 37 4 C34.03 4 31.06 4 28 4 C28 4.66 28 5.32 28 6 C26.86457764 6.02505615 25.72915527 6.0501123 24.55932617 6.07592773 C20.34924919 6.17005576 16.13933512 6.27026337 11.92944336 6.37231445 C10.10689096 6.41564287 8.28429852 6.45731947 6.46166992 6.49731445 C3.84281339 6.55506762 1.22415805 6.61874756 -1.39453125 6.68359375 C-2.21025101 6.70030624 -3.02597076 6.71701874 -3.8664093 6.73423767 C-7.14179544 6.82013245 -9.87256401 6.95752134 -13 8 C-14.49676706 8.11659598 -15.99875061 8.17498959 -17.5 8.1875 C-18.66015625 8.20876953 -18.66015625 8.20876953 -19.84375 8.23046875 C-22 8 -22 8 -25 6 C-25 5.34 -25 4.68 -25 4 C-21.86501708 2.14223235 -19.62528568 1.79859524 -16 2 C-16 2.66 -16 3.32 -16 4 C-14.68 3.34 -13.36 2.68 -12 2 C-11.01 2.66 -10.02 3.32 -9 4 C-6.72734011 3.32333841 -6.72734011 3.32333841 -4.4375 2.0625 C-2.05859375 0.84765625 -2.05859375 0.84765625 0 0 Z " fill="#537180" transform="translate(198,13)"/>
<path d="M0 0 C-4.29 7.26 -8.58 14.52 -13 22 C-15.71609918 19.28390082 -16.46920222 16.13404955 -17.625 12.5625 C-17.85445313 11.88123047 -18.08390625 11.19996094 -18.3203125 10.49804688 C-19.29042613 7.55017182 -20 5.12333158 -20 2 C-17.41842632 1.46867611 -14.83538244 0.94965621 -12.25 0.4375 C-11.52039063 0.28603516 -10.79078125 0.13457031 -10.0390625 -0.02148438 C-6.16736859 -0.77822455 -3.89665192 -0.97416298 0 0 Z " fill="#131518" transform="translate(137,135)"/>
<path d="M0 0 C6.7857936 0.54863863 13.35009036 1.54267938 20 3 C18.38808348 9.85921925 16.64031672 16.46207289 14 23 C11.55653472 20.75324868 9.9528106 18.45822599 8.30078125 15.5859375 C7.81416016 14.74289063 7.32753906 13.89984375 6.82617188 13.03125 C6.32666016 12.1546875 5.82714844 11.278125 5.3125 10.375 C4.80138672 9.49070313 4.29027344 8.60640625 3.76367188 7.6953125 C0 1.14280499 0 1.14280499 0 0 Z " fill="#0F1215" transform="translate(213,134)"/>
<path d="M0 0 C1.01850037 0.07289246 2.03700073 0.14578491 3.08636475 0.22088623 C3.98840637 0.29414124 4.890448 0.36739624 5.81982422 0.44287109 C6.97259354 0.53258682 6.97259354 0.53258682 8.14865112 0.62411499 C10 1 10 1 12 3 C8.58315558 2.85816356 5.16657133 2.71075795 1.75 2.5625 C0.80125 2.52318359 -0.1475 2.48386719 -1.125 2.44335938 C-5.86331639 2.23525764 -10.56838632 1.95516363 -15.28808594 1.48413086 C-22.5191523 0.87371662 -29.7275119 0.88612882 -36.97686768 0.92483521 C-39.43429426 0.93781314 -41.89166568 0.94416801 -44.34912109 0.94897461 C-49.56610574 0.96030001 -54.78304425 0.97953285 -60 1 C-66.05429795 1.02375221 -72.10856887 1.0440969 -78.16290283 1.05593872 C-80.56225248 1.06233278 -82.96151724 1.07483581 -85.36083984 1.08764648 C-93.61903591 1.11491312 -101.77977485 0.88379875 -110 0 C-110 -0.33 -110 -0.66 -110 -1 C-100.67826504 -1.18044417 -91.35640011 -1.34603347 -82.0341053 -1.49477577 C-77.70113028 -1.56433255 -73.36833839 -1.63822503 -69.03564453 -1.72363281 C-45.91941553 -2.17518742 -23.05626178 -1.84163478 0 0 Z " fill="#966947" transform="translate(150,16)"/>
<path d="M0 0 C0.80206375 0.00045319 1.6041275 0.00090637 2.43049622 0.00137329 C3.69150902 -0.00366463 3.69150902 -0.00366463 4.97799683 -0.00880432 C7.77305049 -0.01834706 10.56804443 -0.02025934 13.3631134 -0.02133179 C15.30026779 -0.02454296 17.23742194 -0.02790693 19.17457581 -0.03141785 C23.24344952 -0.03741806 27.31230198 -0.03925692 31.38117981 -0.03866577 C36.59449935 -0.0385643 41.80768221 -0.05219663 47.02096939 -0.06943798 C51.02555466 -0.08056104 55.03010698 -0.08258485 59.03470612 -0.08205605 C60.95642822 -0.08323646 62.87815116 -0.08766171 64.79985809 -0.09538841 C67.49063641 -0.10519081 70.18111935 -0.10230883 72.87190247 -0.09628296 C73.66586929 -0.10190247 74.45983612 -0.10752197 75.27786255 -0.11331177 C79.4296484 -0.08969743 82.67650622 0.27679593 86.4099884 2.14663696 C86.0799884 2.80663696 85.7499884 3.46663696 85.4099884 4.14663696 C83.03490986 4.17383252 80.66014877 4.19356943 78.2849884 4.20913696 C77.28725403 4.22170532 77.28725403 4.22170532 76.2693634 4.23452759 C73.28271317 4.24916803 70.45465432 4.15427165 67.50764465 3.65054321 C63.31493409 2.96850076 59.21252248 3.00174626 54.9724884 3.02163696 C54.15200012 3.01776978 53.33151184 3.01390259 52.48616028 3.00991821 C48.96795397 3.01553387 45.6440303 3.11091182 42.1599884 3.64273071 C36.39830169 4.41695737 30.65407889 4.33102351 24.8474884 4.33413696 C23.03861145 4.3525061 23.03861145 4.3525061 21.19319153 4.37124634 C20.02594543 4.37317993 18.85869934 4.37511353 17.65608215 4.37710571 C16.60090393 4.3812146 15.54572571 4.38532349 14.45857239 4.38955688 C11.16924126 4.12745354 8.51063802 3.23918497 5.4099884 2.14663696 C1.79969671 2.14663696 -1.14807836 3.10756278 -4.5900116 4.14663696 C-4.5900116 3.48663696 -4.5900116 2.82663696 -4.5900116 2.14663696 C-5.2500116 1.81663696 -5.9100116 1.48663696 -6.5900116 1.14663696 C-4.80103939 -0.64233524 -2.38281175 0.01399467 0 0 Z " fill="#503059" transform="translate(172.5900115966797,328.8533630371094)"/>
<path d="M0 0 C-5.52314253 4.88585685 -12.46466026 4.15771074 -19.4375 4.125 C-20.66823242 4.13080078 -20.66823242 4.13080078 -21.92382812 4.13671875 C-22.73142578 4.13542969 -23.53902344 4.13414062 -24.37109375 4.1328125 C-25.09224365 4.13168457 -25.81339355 4.13055664 -26.55639648 4.12939453 C-29 4 -29 4 -32.34521484 3.50708008 C-35.9659911 3.00471854 -39.45253061 2.82706847 -43.10546875 2.75390625 C-45.07483398 2.70459961 -45.07483398 2.70459961 -47.08398438 2.65429688 C-49.14440289 2.60674686 -51.20478153 2.56217309 -53.26538086 2.52319336 C-55.27475917 2.48343904 -57.28388117 2.43133443 -59.29296875 2.37890625 C-60.4843042 2.3538501 -61.67563965 2.32879395 -62.90307617 2.30297852 C-65.88740319 2.01101558 -67.42287631 1.39961455 -70 0 C-61.16853594 -0.15369608 -52.3370018 -0.3018777 -43.50532722 -0.4429636 C-39.40470428 -0.50864553 -35.30413149 -0.57624729 -31.20361328 -0.64819336 C-27.24851634 -0.717518 -23.2933672 -0.78185611 -19.33813095 -0.84269524 C-17.82698481 -0.86682421 -16.31586657 -0.89276879 -14.80478287 -0.92053413 C-12.69297906 -0.95903125 -10.58116946 -0.99114915 -8.46923828 -1.02172852 C-7.26566681 -1.04171402 -6.06209534 -1.06169952 -4.822052 -1.08229065 C-2 -1 -2 -1 0 0 Z " fill="#503D64" transform="translate(324,329)"/>
<path d="M0 0 C2.25421022 3.38131532 2.24941882 4.50730538 2.24723816 8.46569824 C2.25143265 9.60139755 2.25562714 10.73709686 2.25994873 11.9072113 C2.25432922 13.15406204 2.24870972 14.40091278 2.24291992 15.68554688 C2.24481827 16.9978981 2.24671661 18.31024933 2.24867249 19.66236877 C2.25352311 23.26356362 2.24586241 26.86463471 2.23571944 30.46581459 C2.22694185 34.23205044 2.22869633 37.99828238 2.2290802 41.76452637 C2.22814339 48.0896207 2.21945723 54.41466709 2.20581055 60.73974609 C2.19008485 68.05551279 2.18481244 75.37122696 2.1855461 82.68700933 C2.18615623 89.72055129 2.18105214 96.75407611 2.17275429 103.78761292 C2.16922122 106.78276198 2.167391 109.77790498 2.16686058 112.77305603 C2.16567053 116.95354701 2.15596249 121.13397568 2.14526367 125.31445312 C2.14571686 126.56130386 2.14617004 127.8081546 2.14663696 129.0927887 C2.14237198 130.22848801 2.13810699 131.36418732 2.13371277 132.53430176 C2.13203692 133.52317635 2.13036108 134.51205093 2.12863445 135.53089142 C2 138 2 138 1 141 C0.34 141 -0.32 141 -1 141 C-1.02334397 123.05884913 -1.04098656 105.11770219 -1.05181217 87.17653942 C-1.05697194 78.84644755 -1.06400858 70.51636511 -1.07543945 62.1862793 C-1.08539602 54.9271239 -1.09185576 47.66797533 -1.09408849 40.4088133 C-1.09539394 36.56394278 -1.09846936 32.71909179 -1.10573006 28.87422752 C-1.11250559 25.2570518 -1.11461382 21.63990371 -1.11310768 18.02272224 C-1.11351497 16.05878472 -1.11890221 14.09485022 -1.12442017 12.13092041 C-1.1230455 10.96564316 -1.12167084 9.80036591 -1.12025452 8.59977722 C-1.12117631 7.58488315 -1.1220981 6.56998907 -1.12304783 5.52434063 C-1 3 -1 3 0 0 Z " fill="#448AB3" transform="translate(328,30)"/>
<path d="M0 0 C1.30614761 0.00142502 2.61229523 0.00285004 3.95802307 0.00431824 C4.6788205 0.00241989 5.39961792 0.00052155 6.14225769 -0.00143433 C8.54002072 -0.00515507 10.93748386 0.00559742 13.33522034 0.01676941 C15.01320358 0.01796278 16.6911875 0.01841404 18.36917114 0.01815796 C21.90257402 0.01972612 25.43587608 0.02802795 28.96925354 0.04142761 C33.44239569 0.05819637 37.91542475 0.06224826 42.38859463 0.06148243 C45.86618074 0.06175837 49.34374334 0.06730966 52.82132149 0.07448387 C54.46631251 0.07761533 56.11130614 0.07962464 57.75629997 0.08037758 C69.52117537 0.0916324 81.22109959 0.5333824 92.96412659 1.24723816 C93.45912659 2.23723816 93.45912659 2.23723816 93.96412659 3.24723816 C93.0119928 3.21170837 92.05985901 3.17617859 91.07887268 3.13957214 C68.75494941 2.32965302 46.57229623 2.27451686 24.24836731 3.07022095 C18.23319023 3.27187288 12.23132458 3.25556469 6.21388245 3.1693573 C2.93694867 3.15951931 2.93694867 3.15951931 -0.3344574 3.87394714 C-1.67165833 4.0587262 -1.67165833 4.0587262 -3.03587341 4.24723816 C-3.69587341 3.58723816 -4.35587341 2.92723816 -5.03587341 2.24723816 C-3.03587341 0.24723816 -3.03587341 0.24723816 0 0 Z " fill="#6F4F37" transform="translate(33.03587341308594,8.752761840820313)"/>
<path d="M0 0 C10.00920936 -0.13918418 19.87715661 0.22762514 29.83917236 1.21551514 C31.95227547 1.42337773 34.0665425 1.61300921 36.18145752 1.80145264 C37.54483917 1.93060544 38.90812519 2.06077288 40.27130127 2.19207764 C41.47641357 2.3072876 42.68152588 2.42249756 43.92315674 2.54119873 C46.73731661 2.99643698 48.60756632 3.59041188 51.02911377 5.04364014 C47.61226935 4.9018037 44.1956851 4.75439809 40.77911377 4.60614014 C39.83036377 4.56682373 38.88161377 4.52750732 37.90411377 4.48699951 C33.2207614 4.28131174 28.56900518 4.00952028 23.90411377 3.54364014 C14.96537291 2.78896357 6.00938017 2.80914165 -2.95526123 2.72723389 C-4.86625574 2.70662103 -6.77724614 2.68562356 -8.68823242 2.66426086 C-13.67918533 2.60948691 -18.67017627 2.55988367 -23.66119385 2.51141357 C-28.76966675 2.46086894 -33.87808552 2.40535624 -38.98651123 2.35028076 C-48.98125647 2.24324702 -58.97604904 2.14168415 -68.97088623 2.04364014 C-68.97088623 1.71364014 -68.97088623 1.38364014 -68.97088623 1.04364014 C-60.67645346 0.91158313 -52.38199797 0.78109596 -44.08751106 0.65248871 C-40.23400815 0.59269289 -36.38051444 0.53240206 -32.52703857 0.47088623 C-21.68486758 0.29814707 -10.84235348 0.15926621 0 0 Z " fill="#A07251" transform="translate(114.97088623046875,15.95635986328125)"/>
<path d="M0 0 C0.66 0 1.32 0 2 0 C2.144375 1.11375 2.28875 2.2275 2.4375 3.375 C2.78372035 6.82142047 2.78372035 6.82142047 4 9 C3.45660686 10.8086462 3.45660686 10.8086462 2.58952332 12.9931488 C0.79658456 18.11381587 0.55897033 22.72073724 0.56762695 28.10961914 C0.55233948 29.55999573 0.55233948 29.55999573 0.53674316 31.03967285 C0.50678224 34.20489422 0.49737308 37.36981212 0.48828125 40.53515625 C0.47142205 42.74190768 0.45327014 44.94864958 0.43388367 47.15538025 C0.38651257 52.94042991 0.35661981 58.72544091 0.33044434 64.51062012 C0.30057372 70.42317333 0.25406575 76.33559354 0.20898438 82.24804688 C0.1230979 93.83196149 0.05568749 105.41590358 0 117 C-0.33 117 -0.66 117 -1 117 C-1.1779895 104.25537066 -1.34386394 91.51064447 -1.49477577 78.7656641 C-1.56523929 72.84604155 -1.63969014 66.92652805 -1.72363281 61.00708008 C-1.8046683 55.28184841 -1.87473452 49.55657308 -1.93757248 43.83111382 C-1.96325961 41.6596943 -1.99273008 39.48831575 -2.02626419 37.31700325 C-2.21833544 24.69880055 -1.89335319 12.48923677 0 0 Z " fill="#66578C" transform="translate(331,183)"/>
<path d="M0 0 C43.56 0 87.12 0 132 0 C127.88882499 3.08338126 127.39608176 3.37387931 122.65960693 3.32279968 C121.57709656 3.31850952 120.49458618 3.31421936 119.37927246 3.30979919 C118.19675903 3.28966263 117.01424561 3.26952606 115.79589844 3.2487793 C113.92233673 3.23480606 113.92233673 3.23480606 112.01092529 3.22055054 C108.58948044 3.19207086 105.1686954 3.15014705 101.74750042 3.10225272 C98.17081858 3.05535716 94.59399514 3.02563576 91.01715088 2.99409485 C84.24558498 2.93177161 77.47428818 2.85399693 70.70295167 2.77067453 C62.99332557 2.67655841 55.28355786 2.59966156 47.57372999 2.52421319 C31.71558435 2.36863945 15.85775573 2.19143466 0 2 C0 1.34 0 0.68 0 0 Z " fill="#6E2E48" transform="translate(34,329)"/>
<path d="M0 0 C0.33 0 0.66 0 1 0 C1.06058594 0.89203125 1.12117188 1.7840625 1.18359375 2.703125 C1.26738281 3.87359375 1.35117187 5.0440625 1.4375 6.25 C1.55931641 7.99023438 1.55931641 7.99023438 1.68359375 9.765625 C1.88722498 12.79761948 1.88722498 12.79761948 2.51268005 14.85821533 C3.10437803 17.45874435 3.11964372 19.83533619 3.11352539 22.50292969 C3.11344986 23.60376892 3.11337433 24.70460815 3.11329651 25.83880615 C3.10813522 27.02121887 3.10297394 28.20363159 3.09765625 29.421875 C3.0962413 30.63699768 3.09482635 31.85212036 3.09336853 33.10406494 C3.08776988 36.98606831 3.0752176 40.86801406 3.0625 44.75 C3.05748483 47.38150958 3.05292195 50.01302007 3.04882812 52.64453125 C3.03780089 59.09637383 3.02106408 65.5481828 3 72 C2.67 72 2.34 72 2 72 C1.9498877 70.71536865 1.89977539 69.4307373 1.84814453 68.10717773 C1.65759516 63.27045192 1.45777473 58.43414341 1.25537109 53.59790039 C1.169569 51.51792264 1.08617072 49.4378441 1.00537109 47.35766602 C0.58064202 36.46415179 0.0747047 25.69922817 -1.57763672 14.91503906 C-2.33215073 9.70758399 -3.06439195 4.59658793 0 0 Z " fill="#AC576B" transform="translate(21,239)"/>
<path d="M0 0 C0 0.33 0 0.66 0 1 C-3.16641449 1.48084266 -6.33317593 1.95936294 -9.5 2.4375 C-10.8303125 2.63956055 -10.8303125 2.63956055 -12.1875 2.84570312 C-17.45109386 3.63911249 -22.71502584 4.36407437 -28 5 C-28.061875 6.051875 -28.12375 7.10375 -28.1875 8.1875 C-29.14206533 12.66661425 -30.4404442 14.20320616 -34 17 C-34.99 17 -35.98 17 -37 17 C-32.06101648 4.08265848 -32.06101648 4.08265848 -26 1 C-17.31995994 -1.42512876 -8.86351516 -1.07348629 0 0 Z " fill="#986B57" transform="translate(52,16)"/>
<path d="M0 0 C0.33 0 0.66 0 1 0 C1.78295787 15.67789834 2.14394909 31.30290546 2 47 C0.5 45.625 0.5 45.625 -1 44 C-1 43.34 -1 42.68 -1 42 C-1.33 42 -1.66 42 -2 42 C-1.67 34.74 -1.34 27.48 -1 20 C-1.33 20 -1.66 20 -2 20 C-2 15.05 -2 10.1 -2 5 C-1.67 5 -1.34 5 -1 5 C-0.67 3.35 -0.34 1.7 0 0 Z " fill="#A34A63" transform="translate(21,266)"/>
<path d="M0 0 C0.66 0.33 1.32 0.66 2 1 C9.85585699 2.14514531 17.76763385 2.12554854 25.6875 2.0625 C26.78255859 2.05798828 27.87761719 2.05347656 29.00585938 2.04882812 C31.67063309 2.03719156 34.33528517 2.02084564 37 2 C37 2.66 37 3.32 37 4 C21.67589409 5.2418957 6.36407828 5.101915 -9 5 C-6.32239719 2.32239719 -3.52050129 1.32018799 0 0 Z " fill="#436576" transform="translate(198,13)"/>
<path d="M0 0 C1.23492187 -0.01675781 2.46984375 -0.03351562 3.7421875 -0.05078125 C8.89211362 0.50227086 12.08304518 2.13344586 15.5 6 C16.03625 6.763125 16.5725 7.52625 17.125 8.3125 C16.568125 8.02375 16.01125 7.735 15.4375 7.4375 C14.674375 7.06625 13.91125 6.695 13.125 6.3125 C12.42930908 5.96783691 11.73361816 5.62317383 11.0168457 5.26806641 C7.20011192 4.00688481 3.52163669 3.95709359 -0.45703125 3.8984375 C-1.67829964 3.86938828 -1.67829964 3.86938828 -2.92424011 3.8397522 C-5.51188852 3.78021248 -8.09958203 3.73367417 -10.6875 3.6875 C-12.44728449 3.6492966 -14.20705074 3.6102435 -15.96679688 3.5703125 C-20.26938234 3.47453218 -24.5720553 3.39040715 -28.875 3.3125 C-28.875 2.9825 -28.875 2.6525 -28.875 2.3125 C-19.27239026 1.21056118 -9.67357482 0.12045639 0 0 Z " fill="#275570" transform="translate(309.875,10.6875)"/>
<path d="M0 0 C3.65559757 2.66759822 6.02537925 4.91299425 8 9 C8.29296875 12.33203125 8.29296875 12.33203125 8.1875 15.8125 C8.16042969 16.97394531 8.13335937 18.13539062 8.10546875 19.33203125 C8.07066406 20.21246094 8.03585937 21.09289062 8 22 C7.01 22 6.02 22 5 22 C4.67 18.04 4.34 14.08 4 10 C-1.12283766 9.01356362 -6.17748929 8.69032947 -11.375 8.4375 C-12.20644531 8.39431641 -13.03789062 8.35113281 -13.89453125 8.30664062 C-15.92953228 8.20138195 -17.96474703 8.10026928 -20 8 C-20 7.67 -20 7.34 -20 7 C-12.08 7 -4.16 7 4 7 C2.68 5.68 1.36 4.36 0 3 C0 2.01 0 1.02 0 0 Z " fill="#397497" transform="translate(322,11)"/>
<path d="M0 0 C1.26457031 0.0721875 2.52914062 0.144375 3.83203125 0.21875 C5.49218501 0.312544 7.1523414 0.40629158 8.8125 0.5 C10.06256836 0.57154297 10.06256836 0.57154297 11.33789062 0.64453125 C12.14033203 0.68964844 12.94277344 0.73476562 13.76953125 0.78125 C14.50792236 0.82314453 15.24631348 0.86503906 16.00708008 0.90820312 C17.66990494 0.98479533 19.3354121 1 21 1 C21.99 1.33 22.98 1.66 24 2 C24.66 1.67 25.32 1.34 26 1 C26.33 1.99 26.66 2.98 27 4 C28.49985609 5.66710346 28.49985609 5.66710346 30 7 C28.41676312 7.027193 26.83338938 7.04648306 25.25 7.0625 C23.92742187 7.07990234 23.92742187 7.07990234 22.578125 7.09765625 C20.2181162 7.00826198 18.25501476 6.66912821 16 6 C16 5.34 16 4.68 16 4 C10.72 3.34 5.44 2.68 0 2 C0 1.34 0 0.68 0 0 Z " fill="#875D4C" transform="translate(146,14)"/>
<path d="M0 0 C1.32306152 0.0009668 1.32306152 0.0009668 2.67285156 0.00195312 C3.56649414 0.00130859 4.46013672 0.00066406 5.38085938 0 C13.57674785 0.06405312 21.51667703 0.92340348 29.61035156 2.18945312 C25.88914759 4.56951252 22.57735977 4.45678649 18.23535156 4.43945312 C16.94886719 4.44460938 15.66238281 4.44976562 14.33691406 4.45507812 C10.72819966 4.1978532 7.98820007 3.41599178 4.61035156 2.18945312 C1.00005987 2.18945312 -1.9477152 3.15037894 -5.38964844 4.18945312 C-5.38964844 3.52945312 -5.38964844 2.86945313 -5.38964844 2.18945312 C-6.04964844 1.85945313 -6.70964844 1.52945312 -7.38964844 1.18945312 C-5.45589627 -0.74429905 -2.57350135 0.02229895 0 0 Z " fill="#522A50" transform="translate(173.3896484375,328.810546875)"/>
<path d="M0 0 C0.66 0.66 1.32 1.32 2 2 C0.02 4.31 -1.96 6.62 -4 9 C-4.33 7.68 -4.66 6.36 -5 5 C-3.5399926 2.56665433 -2.54764436 1.27382218 0 0 Z M-8 9 C-7.01 9.33 -6.02 9.66 -5 10 C-7.53574201 12.60484399 -9.51774832 13.22282921 -13.03417969 13.34057617 C-14.66348867 13.34010316 -16.29284773 13.32326986 -17.921875 13.29296875 C-18.78186096 13.28872391 -19.64184692 13.28447906 -20.52789307 13.28010559 C-23.2689167 13.26334116 -26.00919939 13.22569345 -28.75 13.1875 C-30.61066645 13.17245025 -32.47134445 13.15876235 -34.33203125 13.14648438 C-38.8883054 13.11344499 -43.44402716 13.06167833 -48 13 C-48 12.67 -48 12.34 -48 12 C-46.93040039 11.98018066 -45.86080078 11.96036133 -44.75878906 11.93994141 C-40.78524488 11.8637902 -36.81206234 11.77508758 -32.83886719 11.68261719 C-31.12018989 11.64436673 -29.40143362 11.60950697 -27.68261719 11.578125 C-25.2099996 11.53238872 -22.73792387 11.47440916 -20.265625 11.4140625 C-19.49881409 11.40251129 -18.73200317 11.39096008 -17.94195557 11.37905884 C-14.06431382 11.27211446 -11.38877917 10.84887514 -8 9 Z " fill="#63537F" transform="translate(331,314)"/>
<path d="M0 0 C12.87 0.495 12.87 0.495 26 1 C26 1.66 26 2.32 26 3 C22.97910522 3.02716089 19.95845871 3.04691657 16.9375 3.0625 C16.08994141 3.07087891 15.24238281 3.07925781 14.36914062 3.08789062 C9.4638278 3.10683006 4.83555245 2.83326345 0 2 C0 1.34 0 0.68 0 0 Z " fill="#46385C" transform="translate(288,330)"/>
<path d="M0 0 C0.99 0 1.98 0 3 0 C2.67 7.59 2.34 15.18 2 23 C1.34 23 0.68 23 0 23 C0 15.41 0 7.82 0 0 Z " fill="#7175A5" transform="translate(326,171)"/>
<path d="M0 0 C0 0.66 0 1.32 0 2 C0.61875 1.649375 1.2375 1.29875 1.875 0.9375 C2.926875 0.4734375 2.926875 0.4734375 4 0 C4.66 0.33 5.32 0.66 6 1 C6 1.66 6 2.32 6 3 C-4.36585366 6.31707317 -4.36585366 6.31707317 -9 4 C-9 3.34 -9 2.68 -9 2 C-5.5647952 -0.29013653 -4.014669 -0.17842973 0 0 Z " fill="#59656D" transform="translate(182,15)"/>
<path d="M0 0 C0.66 0 1.32 0 2 0 C2.144375 1.11375 2.28875 2.2275 2.4375 3.375 C2.78372035 6.82142047 2.78372035 6.82142047 4 9 C3.44140625 11.1640625 3.44140625 11.1640625 2.5625 13.625 C2.27503906 14.44226563 1.98757813 15.25953125 1.69140625 16.1015625 C1.46324219 16.72804687 1.23507812 17.35453125 1 18 C-2.22395275 13.16407087 -1.28671404 8.04283751 -0.5 2.4375 C-0.335 1.633125 -0.17 0.82875 0 0 Z " fill="#575588" transform="translate(331,183)"/>
<path d="M0 0 C3.65559757 2.66759822 6.02537925 4.91299425 8 9 C8.29296875 12.33203125 8.29296875 12.33203125 8.1875 15.8125 C8.16042969 16.97394531 8.13335937 18.13539062 8.10546875 19.33203125 C8.07066406 20.21246094 8.03585937 21.09289062 8 22 C5.86766833 18.8015025 5.79478224 17.86332821 5.6875 14.1875 C5.28118833 8.82731149 3.63719624 6.82371913 0 3 C0 2.01 0 1.02 0 0 Z " fill="#2F6788" transform="translate(322,11)"/>
<path d="M0 0 C1.63440175 3.26880349 2.48043948 5.51254362 3.1875 9 C3.36667969 9.845625 3.54585938 10.69125 3.73046875 11.5625 C4.20032156 15.8116037 2.61745665 19.11810404 1 23 C0.67 23 0.34 23 0 23 C0 15.41 0 7.82 0 0 Z " fill="#407EA8" transform="translate(329,153)"/>
<path d="M0 0 C1.32 0.66 2.64 1.32 4 2 C4 5.99904969 2.27413033 7.80200422 0 11 C-2 8 -2 8 -1.6875 5.5 C-1.17901328 3.65095738 -0.60642538 1.81927613 0 0 Z " fill="#4E6999" transform="translate(331,172)"/>
<path d="M0 0 C0.66 0.33 1.32 0.66 2 1 C-5.3502398 10.15518034 -5.3502398 10.15518034 -11 12 C-13.72173492 12.212404 -16.26154313 12.14164432 -19 12 C-19 11.67 -19 11.34 -19 11 C-17.1746875 10.5978125 -17.1746875 10.5978125 -15.3125 10.1875 C-8.54930308 8.46401396 -4.72913229 4.94909193 0 0 Z " fill="#554872" transform="translate(333,317)"/>
<path d="M0 0 C1.85792928 3.71585856 2.29450087 5.06419119 2.3125 9 C2.32925781 9.845625 2.34601562 10.69125 2.36328125 11.5625 C2 14 2 14 -1 18 C-0.505 9.09 -0.505 9.09 0 0 Z " fill="#9F415E" transform="translate(20,290)"/>
<path d="M0 0 C1.77007714 -0.08114106 3.54122098 -0.13925505 5.3125 -0.1875 C6.29863281 -0.22230469 7.28476563 -0.25710937 8.30078125 -0.29296875 C11 0 11 0 12.85546875 1.51171875 C13.23316406 2.00285156 13.61085937 2.49398438 14 3 C12.41676312 3.027193 10.83338938 3.04648306 9.25 3.0625 C7.92742187 3.07990234 7.92742187 3.07990234 6.578125 3.09765625 C4.2181162 3.00826198 2.25501476 2.66912821 0 2 C0 1.34 0 0.68 0 0 Z " fill="#7D6B67" transform="translate(162,18)"/>
<path d="M0 0 C1.39456452 0.00667256 2.78911118 0.01863093 4.18359375 0.03515625 C4.89451172 0.03966797 5.60542969 0.04417969 6.33789062 0.04882812 C8.09899388 0.06064761 9.86005411 0.07858362 11.62109375 0.09765625 C8.97370459 1.55828475 7.72661041 2.09765625 4.62109375 2.09765625 C2.27898454 2.73280451 -0.05575594 3.39632785 -2.37890625 4.09765625 C-2.37890625 3.43765625 -2.37890625 2.77765625 -2.37890625 2.09765625 C-3.03890625 1.76765625 -3.69890625 1.43765625 -4.37890625 1.09765625 C-3.37890625 0.09765625 -3.37890625 0.09765625 0 0 Z " fill="#5C2D4C" transform="translate(170.37890625,328.90234375)"/>
<path d="M0 0 C0.66 0 1.32 0 2 0 C3.51708428 9.41002278 3.51708428 9.41002278 1 14 C0.67 14 0.34 14 0 14 C0 9.38 0 4.76 0 0 Z " fill="#63689A" transform="translate(328,180)"/>
<path d="M0 0 C0.75 1.5625 0.75 1.5625 1 4 C-0.13084437 6.50286409 -1.52139516 8.67007722 -3 11 C-3.66 11 -4.32 11 -5 11 C-4.06916801 6.81125605 -3.08035356 3.08035356 0 0 Z " fill="#A0705E" transform="translate(23,21)"/>
<path d="M0 0 C0.99 0 1.98 0 3 0 C3 2.97 3 5.94 3 9 C2.01 9.495 2.01 9.495 1 10 C-0.1577506 6.52674819 -0.06866652 3.63932552 0 0 Z " fill="#5D7EAA" transform="translate(326,171)"/>
<path d="M0 0 C0.33 0 0.66 0 1 0 C0.75 3.375 0.75 3.375 0 7 C-2.0625 8.4375 -2.0625 8.4375 -4 9 C-3.34 6.69 -2.68 4.38 -2 2 C-1.34 2 -0.68 2 0 2 C0 1.34 0 0.68 0 0 Z " fill="#346893" transform="translate(335,161)"/>
<path d="M0 0 C0.33 0 0.66 0 1 0 C1.125 6.625 1.125 6.625 0 10 C-0.66 10 -1.32 10 -2 10 C-1.85950482 8.52031676 -1.71245174 7.04125484 -1.5625 5.5625 C-1.48128906 4.73878906 -1.40007812 3.91507813 -1.31640625 3.06640625 C-1 1 -1 1 0 0 Z " fill="#4B82AD" transform="translate(329,161)"/>
<path d="M0 0 C1.3921875 0.0928125 1.3921875 0.0928125 2.8125 0.1875 C3.1425 1.1775 3.4725 2.1675 3.8125 3.1875 C0.5125 3.1875 -2.7875 3.1875 -6.1875 3.1875 C-3.1875 0.1875 -3.1875 0.1875 0 0 Z " fill="#575D62" transform="translate(179.1875,14.8125)"/>
<path d="M0 0 C0.66 0.66 1.32 1.32 2 2 C1.01 2.495 1.01 2.495 0 3 C0 2.01 0 1.02 0 0 Z M-1 3 C-0.34 3.99 0.32 4.98 1 6 C0.125 8.6875 0.125 8.6875 -1 11 C-1.33 11 -1.66 11 -2 11 C-2.125 5.25 -2.125 5.25 -1 3 Z " fill="#4673A0" transform="translate(331,165)"/>
<path d="M0 0 C1.175625 0.5259375 1.175625 0.5259375 2.375 1.0625 C3.674375 1.5265625 3.674375 1.5265625 5 2 C5.66 1.67 6.32 1.34 7 1 C7 2.32 7 3.64 7 5 C4.69 4.34 2.38 3.68 0 3 C0 2.01 0 1.02 0 0 Z " fill="#6D5B57" transform="translate(165,14)"/>
<path d="M0 0 C0.99 0.495 0.99 0.495 2 1 C1.01 1.495 1.01 1.495 0 2 C0 1.34 0 0.68 0 0 Z M-1 2 C-0.01 2.99 0.98 3.98 2 5 C0.02 5.99 0.02 5.99 -2 7 C-1.67 5.35 -1.34 3.7 -1 2 Z " fill="#415F8E" transform="translate(333,173)"/>
<path d="M0 0 C0 3 0 3 0 3 Z M-1 3 C-0.67 3.99 -0.34 4.98 0 6 C-1.4375 8.1875 -1.4375 8.1875 -3 10 C-3.33 9.01 -3.66 8.02 -4 7 C-2.5625 4.8125 -2.5625 4.8125 -1 3 Z " fill="#AB7A66" transform="translate(23,25)"/>
<path d="M0 0 C6.75 0.75 6.75 0.75 9 3 C5.625 3.1875 5.625 3.1875 2 3 C1.34 2.01 0.68 1.02 0 0 Z " fill="#7E5D54" transform="translate(158,15)"/>
</svg>
